STARTFONT 2.3
FONT -FontForge-Syncopate-Book-R-Normal--11-110-72-72-P-83-ISO10646-1
SIZE 11 72 72  4
FONTBOUNDINGBOX 20 14 -2 -3
COMMENT "Generated by fontforge, http://fontforge.sourceforge.net"
COMMENT "Copyright (c) 2010 by Brian J. Bonislawsky DBA Astigmatic (AOETI). All rights reserved. Available under the Apache 2.0 licence.http://www.apache.org/licenses/LICENSE-2.0.html"
STARTPROPERTIES 40
FOUNDRY "FontForge"
FAMILY_NAME "Syncopate"
WEIGHT_NAME "Book"
SLANT "R"
SETWIDTH_NAME "Normal"
ADD_STYLE_NAME ""
PIXEL_SIZE 11
POINT_SIZE 110
RESOLUTION_X 72
RESOLUTION_Y 72
SPACING "P"
AVERAGE_WIDTH 83
CHARSET_REGISTRY "ISO10646"
CHARSET_ENCODING "1"
FONTNAME_REGISTRY ""
CHARSET_COLLECTIONS "ISO8859-2 ISO8859-9 ISO8859-4 ISO10646-1"
BITS_PER_PIXEL 4
FONT_NAME "Syncopate-Regular"
FACE_NAME "Syncopate Regular"
COPYRIGHT "Copyright (c) 2010 by Brian J. Bonislawsky DBA Astigmatic (AOETI). All rights reserved. Available under the Apache 2.0 licence.http://www.apache.org/licenses/LICENSE-2.0.html"
FONT_VERSION "001.001"
FONT_ASCENT 9
FONT_DESCENT 2
UNDERLINE_POSITION -1
UNDERLINE_THICKNESS 1
X_HEIGHT 7
CAP_HEIGHT 7
RAW_ASCENT 799
RAW_DESCENT 200
NORM_SPACE 4
RELATIVE_WEIGHT 40
RELATIVE_SETWIDTH 70
SUPERSCRIPT_X 0
SUPERSCRIPT_Y 3
SUPERSCRIPT_SIZE 2
SUBSCRIPT_X 0
SUBSCRIPT_Y 3
SUBSCRIPT_SIZE 2
AVG_LOWERCASE_WIDTH 95
AVG_UPPERCASE_WIDTH 90
ENDPROPERTIES
CHARS 370
STARTCHAR space
ENCODING 32
SWIDTH 375 0
DWIDTH 4 0
BBX 1 1 0 0
BITMAP
00
ENDCHAR
STARTCHAR exclam
ENCODING 33
SWIDTH 274 0
DWIDTH 3 0
BBX 1 8 1 0
BITMAP
C0
C0
B0
A0
90
70
00
C0
ENDCHAR
STARTCHAR quotedbl
ENCODING 34
SWIDTH 290 0
DWIDTH 3 0
BBX 3 2 0 6
BITMAP
92B0
8190
ENDCHAR
STARTCHAR numbersign
ENCODING 35
SWIDTH 701 0
DWIDTH 8 0
BBX 8 8 0 0
BITMAP
00270530
00530800
0CFFFFF2
00800800
00802600
7FFFFF80
04407100
07108000
ENDCHAR
STARTCHAR dollar
ENCODING 36
SWIDTH 767 0
DWIDTH 8 0
BBX 8 10 0 -1
BITMAP
00017000
04CEFFF0
1C327000
1B017000
06DA9100
0016CD90
00017067
00017286
1FFFFD80
00017000
ENDCHAR
STARTCHAR percent
ENCODING 37
SWIDTH 992 0
DWIDTH 11 0
BBX 10 8 0 0
BITMAP
0AEC200830
5703904600
5703919000
0AEC2A1000
0000748ED4
000472A12B
001A02A12A
0092008ED4
ENDCHAR
STARTCHAR ampersand
ENCODING 38
SWIDTH 926 0
DWIDTH 10 0
BBX 10 8 0 0
BITMAP
005DFC3000
00C2048000
0090282000
005D600000
0663A100A0
19002A3190
1D4101AC20
03BEED9691
ENDCHAR
STARTCHAR quotesingle
ENCODING 39
SWIDTH 140 0
DWIDTH 2 0
BBX 2 2 0 6
BITMAP
92
81
ENDCHAR
STARTCHAR parenleft
ENCODING 40
SWIDTH 420 0
DWIDTH 5 0
BBX 4 9 0 -1
BITMAP
0064
0490
0A10
0A00
1900
0A00
0A10
0480
0074
ENDCHAR
STARTCHAR parenright
ENCODING 41
SWIDTH 420 0
DWIDTH 5 0
BBX 3 9 1 -1
BITMAP
8200
1B00
0650
0190
00A0
0190
0650
1B00
8200
ENDCHAR
STARTCHAR asterisk
ENCODING 42
SWIDTH 503 0
DWIDTH 6 0
BBX 5 5 0 3
BITMAP
008100
298570
02E900
298570
008100
ENDCHAR
STARTCHAR plus
ENCODING 43
SWIDTH 634 0
DWIDTH 7 0
BBX 7 5 0 1
BITMAP
00090000
00090000
1FFFFF10
00090000
00090000
ENDCHAR
STARTCHAR comma
ENCODING 44
SWIDTH 185 0
DWIDTH 2 0
BBX 2 2 0 -1
BITMAP
66
91
ENDCHAR
STARTCHAR hyphen
ENCODING 45
SWIDTH 540 0
DWIDTH 6 0
BBX 6 1 0 3
BITMAP
2FFFF1
ENDCHAR
STARTCHAR period
ENCODING 46
SWIDTH 185 0
DWIDTH 2 0
BBX 2 1 0 0
BITMAP
77
ENDCHAR
STARTCHAR slash
ENCODING 47
SWIDTH 500 0
DWIDTH 6 0
BBX 5 8 0 0
BITMAP
000190
000630
000900
005400
00A000
046000
090000
270000
ENDCHAR
STARTCHAR zero
ENCODING 48
SWIDTH 833 0
DWIDTH 9 0
BBX 9 8 0 0
BITMAP
006CFD7000
07B3129900
1B00000930
4600000460
4600000460
1B00000930
07B3028A00
006CFD7000
ENDCHAR
STARTCHAR one
ENCODING 49
SWIDTH 339 0
DWIDTH 4 0
BBX 3 8 0 0
BITMAP
FF60
0460
0460
0460
0460
0460
0460
0460
ENDCHAR
STARTCHAR two
ENCODING 50
SWIDTH 728 0
DWIDTH 8 0
BBX 8 8 0 0
BITMAP
7FFFD920
000016C0
00000092
00000090
00001920
00068100
04830000
7FFFFFF5
ENDCHAR
STARTCHAR three
ENCODING 51
SWIDTH 726 0
DWIDTH 8 0
BBX 8 8 0 0
BITMAP
6FFFEB30
000015B0
00002590
006FF900
000126A0
00000083
000015C1
8FFFEA20
ENDCHAR
STARTCHAR four
ENCODING 52
SWIDTH 769 0
DWIDTH 8 0
BBX 9 8 0 0
BITMAP
00005D4000
0005964000
0049064000
0390064000
2900064000
AFFFFFFF20
0000064000
0000064000
ENDCHAR
STARTCHAR five
ENCODING 53
SWIDTH 738 0
DWIDTH 8 0
BBX 8 8 0 0
BITMAP
1FFFFFD0
19000000
19000000
1EEFEB40
000014C3
00000046
000014B3
5FFFEB40
ENDCHAR
STARTCHAR six
ENCODING 54
SWIDTH 772 0
DWIDTH 9 0
BBX 8 8 0 0
BITMAP
006CEFF4
06A31000
0B000000
387DFE91
4E72016B
2900000A
0972016A
007DED91
ENDCHAR
STARTCHAR seven
ENCODING 55
SWIDTH 669 0
DWIDTH 7 0
BBX 7 8 0 0
BITMAP
FFFFFFF0
00000370
00000A10
00006500
0001A000
00092000
00480000
00B10000
ENDCHAR
STARTCHAR eight
ENCODING 56
SWIDTH 793 0
DWIDTH 9 0
BBX 9 8 0 0
BITMAP
02AEFD9100
0A41017800
0872139400
008FFE4000
0A73149800
5600000A10
3C41016C00
04BEFD9200
ENDCHAR
STARTCHAR nine
ENCODING 57
SWIDTH 776 0
DWIDTH 9 0
BBX 8 8 0 0
BITMAP
04BEEB30
3B3114B2
74000019
3B3113AC
05CEEB4B
00000048
000015C1
0DFFEA20
ENDCHAR
STARTCHAR colon
ENCODING 58
SWIDTH 245 0
DWIDTH 3 0
BBX 2 5 0 0
BITMAP
2C
00
00
00
2C
ENDCHAR
STARTCHAR semicolon
ENCODING 59
SWIDTH 234 0
DWIDTH 3 0
BBX 2 6 0 -1
BITMAP
2C
00
00
00
3A
65
ENDCHAR
STARTCHAR less
ENCODING 60
SWIDTH 634 0
DWIDTH 7 0
BBX 7 5 0 1
BITMAP
00016C10
04AC8300
2E600000
04AC8300
00016C10
ENDCHAR
STARTCHAR equal
ENCODING 61
SWIDTH 634 0
DWIDTH 7 0
BBX 7 3 0 2
BITMAP
1FFFFF10
00000000
1FFFFF10
ENDCHAR
STARTCHAR greater
ENCODING 62
SWIDTH 634 0
DWIDTH 7 0
BBX 7 5 0 1
BITMAP
1C610000
038C9400
00006E20
038CA400
1C610000
ENDCHAR
STARTCHAR question
ENCODING 63
SWIDTH 568 0
DWIDTH 6 0
BBX 6 8 0 0
BITMAP
5FFD70
0002A4
000046
0003B1
03C920
046000
000000
048000
ENDCHAR
STARTCHAR at
ENCODING 64
SWIDTH 1016 0
DWIDTH 11 0
BBX 11 8 0 0
BITMAP
0007CEEB5000
01C831139900
0A409EDA0930
1A0761380650
290A30772C20
0C14DEAED500
05C520000000
003ADFEC3000
ENDCHAR
STARTCHAR A
ENCODING 65
SWIDTH 812 0
DWIDTH 9 0
BBX 9 8 0 0
BITMAP
0003F20000
000A690000
00290A2000
0092028000
0280009100
09FFFFF800
1A00000B10
8300000470
ENDCHAR
STARTCHAR B
ENCODING 66
SWIDTH 836 0
DWIDTH 9 0
BBX 8 8 1 0
BITMAP
CFFFFD60
A00002B0
A00002A0
CFFFFE50
A00002A4
A0000038
A0000196
CFFFFE90
ENDCHAR
STARTCHAR C
ENCODING 67
SWIDTH 869 0
DWIDTH 10 0
BBX 9 8 0 0
BITMAP
004AEFD930
06C4101590
1C10000000
3800000000
3800000000
1C10000000
06C4101590
004BEFE930
ENDCHAR
STARTCHAR D
ENCODING 68
SWIDTH 910 0
DWIDTH 10 0
BBX 9 8 1 0
BITMAP
CFFFEC7000
A000029900
A000000B10
A000000740
A000000740
A000000B10
A00013A900
CFFFFD7000
ENDCHAR
STARTCHAR E
ENCODING 69
SWIDTH 754 0
DWIDTH 8 0
BBX 7 8 1 0
BITMAP
CFFFFF60
B0000000
B0000000
CFFFFF20
B0000000
B0000000
B0000000
CFFFFF70
ENDCHAR
STARTCHAR F
ENCODING 70
SWIDTH 687 0
DWIDTH 8 0
BBX 7 8 1 0
BITMAP
CFFFFF10
A0000000
A0000000
CFFFFC00
A0000000
A0000000
A0000000
A0000000
ENDCHAR
STARTCHAR G
ENCODING 71
SWIDTH 910 0
DWIDTH 10 0
BBX 10 8 0 0
BITMAP
003AEFEA30
05C52015A0
1C00000000
3700000000
380008FFF2
1C10000082
06C51002A2
003ADFEC91
ENDCHAR
STARTCHAR H
ENCODING 72
SWIDTH 949 0
DWIDTH 10 0
BBX 9 8 1 0
BITMAP
A000000730
A000000730
A000000730
CFFFFFFF30
A000000730
A000000730
A000000730
A000000730
ENDCHAR
STARTCHAR I
ENCODING 73
SWIDTH 287 0
DWIDTH 3 0
BBX 1 8 1 0
BITMAP
A0
A0
A0
A0
A0
A0
A0
A0
ENDCHAR
STARTCHAR J
ENCODING 74
SWIDTH 590 0
DWIDTH 7 0
BBX 6 8 0 0
BITMAP
000064
000064
000064
000064
000064
000074
0003D1
FFFC40
ENDCHAR
STARTCHAR K
ENCODING 75
SWIDTH 806 0
DWIDTH 9 0
BBX 8 8 1 0
BITMAP
A0000681
A0019500
A05A1000
B9700000
A5A20000
A02B5000
A0008900
A00004B3
ENDCHAR
STARTCHAR L
ENCODING 76
SWIDTH 701 0
DWIDTH 8 0
BBX 7 8 1 0
BITMAP
A0000000
A0000000
A0000000
A0000000
A0000000
A0000000
A0000000
CFFFFF50
ENDCHAR
STARTCHAR M
ENCODING 77
SWIDTH 1139 0
DWIDTH 13 0
BBX 11 8 1 0
BITMAP
B40000000B40
BC0000005E40
A7800001C740
A0C200096640
A03B003B0640
A00960C20640
A001D8700640
A0005D000640
ENDCHAR
STARTCHAR N
ENCODING 78
SWIDTH 936 0
DWIDTH 10 0
BBX 9 8 1 0
BITMAP
B600000910
A850000910
A094000910
A00A300910
A001A20910
A0001A1910
A00002AA10
A000003E10
ENDCHAR
STARTCHAR O
ENCODING 79
SWIDTH 983 0
DWIDTH 11 0
BBX 11 8 0 0
BITMAP
004BEFDA3000
06C52026D400
1C1000002B00
380000000A10
480000000A10
1C1000002B00
07C41025C400
004BDFDA2000
ENDCHAR
STARTCHAR P
ENCODING 80
SWIDTH 818 0
DWIDTH 9 0
BBX 8 8 1 0
BITMAP
CFFFEC60
A00012A3
A0000056
A00002A3
CFFFED60
A0000000
A0000000
A0000000
ENDCHAR
STARTCHAR Q
ENCODING 81
SWIDTH 983 0
DWIDTH 11 0
BBX 11 8 0 0
BITMAP
004BEFDA3000
06C52026D400
1C1000002B00
380000000A10
480000000A10
1C1000001B00
07C410CBD400
004BDFDA7B90
ENDCHAR
STARTCHAR R
ENCODING 82
SWIDTH 833 0
DWIDTH 9 0
BBX 8 8 1 0
BITMAP
CFFFEB30
A00014C0
A00000A1
A00014C0
CFFFFC40
A0002A00
A0000480
A0000075
ENDCHAR
STARTCHAR S
ENCODING 83
SWIDTH 787 0
DWIDTH 9 0
BBX 8 8 0 0
BITMAP
04BEFFF3
0C310000
0B200000
02AD9500
000148C3
0000001B
0000027A
1FFFFD91
ENDCHAR
STARTCHAR T
ENCODING 84
SWIDTH 708 0
DWIDTH 8 0
BBX 8 8 0 0
BITMAP
CFFFFFF9
00074000
00074000
00074000
00074000
00074000
00074000
00074000
ENDCHAR
STARTCHAR U
ENCODING 85
SWIDTH 891 0
DWIDTH 10 0
BBX 8 8 1 0
BITMAP
A0000019
A0000019
A0000019
A0000019
A0000019
B0000029
7A3114C4
07CEEC50
ENDCHAR
STARTCHAR V
ENCODING 86
SWIDTH 817 0
DWIDTH 9 0
BBX 9 8 0 0
BITMAP
7400000470
1B00000B10
0840004800
02B000B200
0093039000
003A0A2000
000B6A0000
0004F30000
ENDCHAR
STARTCHAR W
ENCODING 87
SWIDTH 1266 0
DWIDTH 14 0
BBX 14 8 0 0
BITMAP
650000A9000065
1A0001AA0000B0
0A100556400290
04700A01900830
00B01900A10B00
00836400554700
0038A0001A9200
000B800009A000
ENDCHAR
STARTCHAR X
ENCODING 88
SWIDTH 821 0
DWIDTH 9 0
BBX 9 8 0 0
BITMAP
1A10001B10
02A100A200
0039093000
0004C50000
0006970000
0058076000
0390009400
2A00000A30
ENDCHAR
STARTCHAR Y
ENCODING 89
SWIDTH 763 0
DWIDTH 8 0
BBX 8 8 0 0
BITMAP
48000039
075001A1
00A20920
001A6500
0004A000
00028000
00028000
00028000
ENDCHAR
STARTCHAR Z
ENCODING 90
SWIDTH 728 0
DWIDTH 8 0
BBX 8 8 0 0
BITMAP
1FFFFFF2
00000460
00003700
00018000
00081000
00810000
06200000
2FFFFFF4
ENDCHAR
STARTCHAR bracketleft
ENCODING 91
SWIDTH 409 0
DWIDTH 5 0
BBX 3 9 1 -1
BITMAP
9FE0
9100
9100
9100
9100
9100
9100
9100
9FE0
ENDCHAR
STARTCHAR backslash
ENCODING 92
SWIDTH 500 0
DWIDTH 6 0
BBX 5 8 0 0
BITMAP
370000
090000
046000
00A000
005400
000900
000630
000190
ENDCHAR
STARTCHAR bracketright
ENCODING 93
SWIDTH 409 0
DWIDTH 5 0
BBX 4 9 0 -1
BITMAP
7FF2
0082
0082
0082
0082
0082
0082
0082
7FF2
ENDCHAR
STARTCHAR asciicircum
ENCODING 94
SWIDTH 459 0
DWIDTH 5 0
BBX 5 3 0 5
BITMAP
02E300
0B4B00
560560
ENDCHAR
STARTCHAR underscore
ENCODING 95
SWIDTH 500 0
DWIDTH 6 0
BBX 6 1 0 -2
BITMAP
FFFFF8
ENDCHAR
STARTCHAR grave
ENCODING 96
SWIDTH 527 0
DWIDTH 6 0
BBX 3 2 1 7
BITMAP
A300
1850
ENDCHAR
STARTCHAR a
ENCODING 97
SWIDTH 888 0
DWIDTH 10 0
BBX 9 8 0 0
BITMAP
09FFFEB400
0000013A40
0000000290
0027ACDF90
09B7431290
3800000190
3B30026C90
06DFEC8490
ENDCHAR
STARTCHAR b
ENCODING 98
SWIDTH 836 0
DWIDTH 9 0
BBX 8 8 1 0
BITMAP
CFFFFD60
A00002B0
A00002A0
CFFFFE50
A00002A4
A0000038
A0000196
CFFFFE90
ENDCHAR
STARTCHAR c
ENCODING 99
SWIDTH 869 0
DWIDTH 10 0
BBX 9 8 0 0
BITMAP
004AEFD930
06C4101590
1C10000000
3800000000
3800000000
1C10000000
06C4101590
004BEFE930
ENDCHAR
STARTCHAR d
ENCODING 100
SWIDTH 910 0
DWIDTH 10 0
BBX 9 8 1 0
BITMAP
CFFFEC7000
A000029900
A000000B10
A000000740
A000000740
A000000B10
A00013A900
CFFFFD7000
ENDCHAR
STARTCHAR e
ENCODING 101
SWIDTH 910 0
DWIDTH 10 0
BBX 10 8 0 0
BITMAP
003BEFC500
05A3113880
1900000081
3FFFFFFFF4
4800000000
1D10000000
06D6100000
003AEFFFA0
ENDCHAR
STARTCHAR f
ENCODING 102
SWIDTH 817 0
DWIDTH 9 0
BBX 8 8 1 0
BITMAP
07DFFFF5
7A310000
B1000000
A0000000
CFFFFFF3
A0000000
A0000000
A0000000
ENDCHAR
STARTCHAR g
ENCODING 103
SWIDTH 910 0
DWIDTH 10 0
BBX 10 8 0 0
BITMAP
003AEFEA30
05C52015A0
1C00000000
3700000000
380008FFF2
1C10000082
06C51002A2
003ADFEC91
ENDCHAR
STARTCHAR h
ENCODING 104
SWIDTH 949 0
DWIDTH 10 0
BBX 9 8 1 0
BITMAP
A000000730
A000000730
A000000730
CFFFFFFF30
A000000730
A000000730
A000000730
A000000730
ENDCHAR
STARTCHAR i
ENCODING 105
SWIDTH 287 0
DWIDTH 3 0
BBX 1 8 1 0
BITMAP
A0
A0
A0
A0
A0
A0
A0
A0
ENDCHAR
STARTCHAR j
ENCODING 106
SWIDTH 590 0
DWIDTH 7 0
BBX 6 8 0 0
BITMAP
000064
000064
000064
000064
000064
000074
0003D1
FFFC40
ENDCHAR
STARTCHAR k
ENCODING 107
SWIDTH 867 0
DWIDTH 10 0
BBX 8 8 1 0
BITMAP
A0000074
A00003B0
A0138A10
CFFF8100
A0138C30
A00002C1
A0000048
A000000A
ENDCHAR
STARTCHAR l
ENCODING 108
SWIDTH 709 0
DWIDTH 8 0
BBX 7 8 1 0
BITMAP
A0000000
A0000000
A0000000
A0000000
A0000000
A0000000
97100000
2BEFFFB0
ENDCHAR
STARTCHAR m
ENCODING 109
SWIDTH 1246 0
DWIDTH 14 0
BBX 12 8 1 0
BITMAP
A2BED419EE70
BC413DC612B4
B10009300047
A00008300038
A00008300038
A00008300038
A00008300038
A00008300038
ENDCHAR
STARTCHAR n
ENCODING 110
SWIDTH 933 0
DWIDTH 10 0
BBX 9 8 1 0
BITMAP
A05BEEB200
BCA4115B00
B300000B00
A000000910
A000000910
A000000910
A000000910
A000000910
ENDCHAR
STARTCHAR o
ENCODING 111
SWIDTH 983 0
DWIDTH 11 0
BBX 11 8 0 0
BITMAP
004BEFDA3000
06C52026D400
1C1000002B00
380000000A10
480000000A10
1C1000002B00
07C41025C400
004BDFDA2000
ENDCHAR
STARTCHAR p
ENCODING 112
SWIDTH 818 0
DWIDTH 9 0
BBX 8 8 1 0
BITMAP
CFFFEC60
A00012A3
A0000056
A00002A3
CFFFED60
A0000000
A0000000
A0000000
ENDCHAR
STARTCHAR q
ENCODING 113
SWIDTH 983 0
DWIDTH 11 0
BBX 11 8 0 0
BITMAP
004BEFDA3000
06C52026D400
1C1000002B00
380000000A10
480000000A10
1C1000002B00
07C41025D400
004BDFEA9C90
ENDCHAR
STARTCHAR r
ENCODING 114
SWIDTH 609 0
DWIDTH 7 0
BBX 6 8 1 0
BITMAP
A06CFA
AB8301
B40000
A00000
A00000
A00000
A00000
A00000
ENDCHAR
STARTCHAR s
ENCODING 115
SWIDTH 787 0
DWIDTH 9 0
BBX 8 8 0 0
BITMAP
04BEFFF3
0C310000
0B200000
02AD9500
000148C3
0000001B
0000027A
1FFFFD91
ENDCHAR
STARTCHAR t
ENCODING 116
SWIDTH 708 0
DWIDTH 8 0
BBX 8 8 0 0
BITMAP
CFFFFFF9
00074000
00074000
00074000
00074000
00074000
00074000
00074000
ENDCHAR
STARTCHAR u
ENCODING 117
SWIDTH 931 0
DWIDTH 10 0
BBX 8 8 1 0
BITMAP
A000000A
A000000A
A000000A
A000000A
A000000A
B000002D
881138DD
19EEC71A
ENDCHAR
STARTCHAR v
ENCODING 118
SWIDTH 817 0
DWIDTH 9 0
BBX 9 8 0 0
BITMAP
7400000470
1B00000B10
0840004800
02B000B200
0093039000
003A0A2000
000B6A0000
0004F30000
ENDCHAR
STARTCHAR w
ENCODING 119
SWIDTH 1266 0
DWIDTH 14 0
BBX 14 8 0 0
BITMAP
650000A9000065
1A0001AA0000B0
0A100556400290
04700A01900830
00B01900A10B00
00836400554700
0038A0001A9200
000B800009A000
ENDCHAR
STARTCHAR x
ENCODING 120
SWIDTH 821 0
DWIDTH 9 0
BBX 9 8 0 0
BITMAP
1A10001B10
02A100A200
0039093000
0004C50000
0006970000
0058076000
0390009400
2A00000A30
ENDCHAR
STARTCHAR y
ENCODING 121
SWIDTH 911 0
DWIDTH 10 0
BBX 8 8 1 0
BITMAP
A000000A
A000000A
C000004B
992028CB
18DFD70A
0000002B
000026E4
FFFFDA40
ENDCHAR
STARTCHAR z
ENCODING 122
SWIDTH 728 0
DWIDTH 8 0
BBX 8 8 0 0
BITMAP
1FFFFFF2
00000460
00003700
00018000
00081000
00810000
06200000
2FFFFFF4
ENDCHAR
STARTCHAR braceleft
ENCODING 123
SWIDTH 386 0
DWIDTH 4 0
BBX 4 9 0 -1
BITMAP
02DB
0660
0730
0920
AA00
0920
0730
0650
02DB
ENDCHAR
STARTCHAR bar
ENCODING 124
SWIDTH 259 0
DWIDTH 3 0
BBX 1 11 1 -3
BITMAP
A0
A0
A0
A0
A0
A0
A0
A0
A0
A0
A0
ENDCHAR
STARTCHAR braceright
ENCODING 125
SWIDTH 386 0
DWIDTH 4 0
BBX 4 9 0 -1
BITMAP
7E40
02A0
00A0
00B1
007E
00B1
00A0
02A0
7E40
ENDCHAR
STARTCHAR asciitilde
ENCODING 126
SWIDTH 634 0
DWIDTH 7 0
BBX 7 2 0 3
BITMAP
0BE71420
2428EB00
ENDCHAR
STARTCHAR nonbreakingspace
ENCODING 160
SWIDTH 375 0
DWIDTH 4 0
BBX 1 1 0 0
BITMAP
00
ENDCHAR
STARTCHAR exclamdown
ENCODING 161
SWIDTH 274 0
DWIDTH 3 0
BBX 1 8 1 0
BITMAP
C0
00
70
90
A0
B0
C0
C0
ENDCHAR
STARTCHAR cent
ENCODING 162
SWIDTH 736 0
DWIDTH 8 0
BBX 8 9 0 -1
BITMAP
00009000
018DFFF8
0B729000
58009000
65009000
58009000
0B729000
018DFFF8
00009000
ENDCHAR
STARTCHAR sterling
ENCODING 163
SWIDTH 792 0
DWIDTH 9 0
BBX 9 8 0 0
BITMAP
0007DFF900
006A200000
00A1000000
00A0000000
5FFFFF7000
00A0000000
04A0000000
5FFFFFFF10
ENDCHAR
STARTCHAR currency
ENCODING 164
SWIDTH 560 0
DWIDTH 6 0
BBX 6 6 0 1
BITMAP
120012
1ADEB2
0A21B0
0A21A0
1ADEB2
120012
ENDCHAR
STARTCHAR yen
ENCODING 165
SWIDTH 811 0
DWIDTH 9 0
BBX 9 8 0 0
BITMAP
1A10001A10
02A000A100
0048093000
0FFFBFFE00
0001C00000
0FFFFFFE00
0000A00000
0000A00000
ENDCHAR
STARTCHAR brokenbar
ENCODING 166
SWIDTH 259 0
DWIDTH 3 0
BBX 1 10 1 -2
BITMAP
A0
A0
A0
A0
00
00
A0
A0
A0
A0
ENDCHAR
STARTCHAR section
ENCODING 167
SWIDTH 500 0
DWIDTH 6 0
BBX 5 8 0 0
BITMAP
08EF50
0B1000
0AC500
482980
2C52A0
029E30
000570
0FFD20
ENDCHAR
STARTCHAR dieresis
ENCODING 168
SWIDTH 527 0
DWIDTH 6 0
BBX 4 1 1 7
BITMAP
9366
ENDCHAR
STARTCHAR copyright
ENCODING 169
SWIDTH 770 0
DWIDTH 8 0
BBX 8 7 0 0
BITMAP
018DEB30
0B7214B4
465DFC19
62B20008
466DFC19
0B7214B4
018EEB40
ENDCHAR
STARTCHAR ordfeminine
ENCODING 170
SWIDTH 497 0
DWIDTH 5 0
BBX 5 6 0 2
BITMAP
4FFD60
18CED0
9522A0
5EFDB0
000000
8FFFD0
ENDCHAR
STARTCHAR guillemotleft
ENCODING 171
SWIDTH 440 0
DWIDTH 5 0
BBX 5 5 0 1
BITMAP
063630
2A2A00
838300
2A2A00
063630
ENDCHAR
STARTCHAR logicalnot
ENCODING 172
SWIDTH 634 0
DWIDTH 7 0
BBX 7 3 0 2
BITMAP
1FFFFF10
00000810
00000810
ENDCHAR
STARTCHAR uni00AD
ENCODING 173
SWIDTH 540 0
DWIDTH 6 0
BBX 6 1 0 3
BITMAP
2FFFF1
ENDCHAR
STARTCHAR registered
ENCODING 174
SWIDTH 600 0
DWIDTH 7 0
BBX 6 5 0 3
BITMAP
05DEA1
29EF99
61CF47
299399
05DEA1
ENDCHAR
STARTCHAR macron
ENCODING 175
SWIDTH 527 0
DWIDTH 6 0
BBX 4 1 1 7
BITMAP
9FF6
ENDCHAR
STARTCHAR degree
ENCODING 176
SWIDTH 373 0
DWIDTH 4 0
BBX 4 3 0 5
BITMAP
1CD1
4655
1CD1
ENDCHAR
STARTCHAR plusminus
ENCODING 177
SWIDTH 634 0
DWIDTH 7 0
BBX 7 6 0 1
BITMAP
00090000
00090000
1FFFFF10
00090000
00090000
1FFFFF10
ENDCHAR
STARTCHAR twosuperior
ENCODING 178
SWIDTH 511 0
DWIDTH 6 0
BBX 5 5 0 3
BITMAP
8FFD50
0002B0
000360
045300
9FFFF0
ENDCHAR
STARTCHAR threesuperior
ENCODING 179
SWIDTH 512 0
DWIDTH 6 0
BBX 5 5 0 3
BITMAP
8FFD40
001490
03FD30
0003B0
9FFD60
ENDCHAR
STARTCHAR acute
ENCODING 180
SWIDTH 527 0
DWIDTH 6 0
BBX 3 2 2 7
BITMAP
0580
7600
ENDCHAR
STARTCHAR micro
ENCODING 181
SWIDTH 705 0
DWIDTH 8 0
BBX 7 7 0 -2
BITMAP
05500190
08200470
09000840
0D316E10
29DE8820
55000000
82000000
ENDCHAR
STARTCHAR paragraph
ENCODING 182
SWIDTH 585 0
DWIDTH 6 0
BBX 6 8 0 0
BITMAP
08EFF2
3FF952
3FF952
08E952
000752
000752
000752
000752
ENDCHAR
STARTCHAR periodcentered
ENCODING 183
SWIDTH 185 0
DWIDTH 2 0
BBX 2 1 0 3
BITMAP
77
ENDCHAR
STARTCHAR cedilla
ENCODING 184
SWIDTH 527 0
DWIDTH 6 0
BBX 4 2 1 -2
BITMAP
06D1
5FD1
ENDCHAR
STARTCHAR onesuperior
ENCODING 185
SWIDTH 261 0
DWIDTH 3 0
BBX 2 5 0 3
BITMAP
DD
09
09
09
09
ENDCHAR
STARTCHAR ordmasculine
ENCODING 186
SWIDTH 520 0
DWIDTH 6 0
BBX 6 6 0 2
BITMAP
1AEE80
840184
840184
1AEE80
000000
6FFFF2
ENDCHAR
STARTCHAR guillemotright
ENCODING 187
SWIDTH 440 0
DWIDTH 5 0
BBX 5 5 0 1
BITMAP
545300
0B1B10
056650
0B1B10
545400
ENDCHAR
STARTCHAR onequarter
ENCODING 188
SWIDTH 857 0
DWIDTH 9 0
BBX 9 8 0 0
BITMAP
CF00008200
0900056000
0900290000
0900A10000
0008307B00
0047282900
02908FFFD0
0A10000900
ENDCHAR
STARTCHAR onehalf
ENCODING 189
SWIDTH 937 0
DWIDTH 10 0
BBX 10 8 0 0
BITMAP
CF00008200
0900056000
0900290000
0900A10000
000835FFC2
0047000075
0290001450
0A1005FFF6
ENDCHAR
STARTCHAR threequarters
ENCODING 190
SWIDTH 978 0
DWIDTH 11 0
BBX 11 8 0 0
BITMAP
5FFC10046000
04FA00290000
001930A10000
7FFB17400000
00004705C200
0001A0747200
000924FFFF30
006400007200
ENDCHAR
STARTCHAR questiondown
ENCODING 191
SWIDTH 568 0
DWIDTH 6 0
BBX 6 8 0 0
BITMAP
000480
000000
000280
007C60
0A5000
380000
1C3000
05DFF9
ENDCHAR
STARTCHAR Agrave
ENCODING 192
SWIDTH 812 0
DWIDTH 9 0
BBX 9 11 0 0
BITMAP
0049100000
0003A10000
0000000000
0003F20000
000A690000
00290A2000
0092028000
0280009100
09FFFFF800
1A00000B10
8300000470
ENDCHAR
STARTCHAR Aacute
ENCODING 193
SWIDTH 812 0
DWIDTH 9 0
BBX 9 11 0 0
BITMAP
0000193000
0001A30000
0000000000
0003F20000
000A690000
00290A2000
0092028000
0280009100
09FFFFF800
1A00000B10
8300000470
ENDCHAR
STARTCHAR Acircumflex
ENCODING 194
SWIDTH 812 0
DWIDTH 9 0
BBX 9 11 0 0
BITMAP
0004A30000
0046064000
0000000000
0003F20000
000A690000
00290A2000
0092028000
0280009100
09FFFFF800
1A00000B10
8300000470
ENDCHAR
STARTCHAR Atilde
ENCODING 195
SWIDTH 812 0
DWIDTH 9 0
BBX 9 11 0 0
BITMAP
001D845000
00549D1000
0000000000
0003F20000
000A690000
00290A2000
0092028000
0280009100
09FFFFF800
1A00000B10
8300000470
ENDCHAR
STARTCHAR Adieresis
ENCODING 196
SWIDTH 812 0
DWIDTH 9 0
BBX 9 10 0 0
BITMAP
000C0C0000
0000000000
0003F20000
000A690000
00290A2000
0092028000
0280009100
09FFFFF800
1A00000B10
8300000470
ENDCHAR
STARTCHAR Aring
ENCODING 197
SWIDTH 812 0
DWIDTH 9 0
BBX 9 11 0 0
BITMAP
000AE90000
000AF90000
0000000000
0003F20000
000A690000
00290A2000
0092028000
0280009100
09FFFFF800
1A00000B10
8300000470
ENDCHAR
STARTCHAR AE
ENCODING 198
SWIDTH 1172 0
DWIDTH 13 0
BBX 13 8 0 0
BITMAP
00005FFFFFFF00
0001C480000000
00084280000000
003902FFFFFB00
00A10280000000
07FFFF80000000
2C000280000000
A30002FFFFFF10
ENDCHAR
STARTCHAR Ccedilla
ENCODING 199
SWIDTH 869 0
DWIDTH 10 0
BBX 9 10 0 -2
BITMAP
004AEFD930
06C4101590
1C10000000
3800000000
3800000000
1C10000000
06C4101590
004BEFE930
00004E3000
0002FE2000
ENDCHAR
STARTCHAR Egrave
ENCODING 200
SWIDTH 754 0
DWIDTH 8 0
BBX 7 11 1 0
BITMAP
06700000
00590000
00000000
CFFFFF60
B0000000
B0000000
CFFFFF20
B0000000
B0000000
B0000000
CFFFFF70
ENDCHAR
STARTCHAR Eacute
ENCODING 201
SWIDTH 754 0
DWIDTH 8 0
BBX 7 11 1 0
BITMAP
0002A100
00392000
00000000
CFFFFF60
B0000000
B0000000
CFFFFF20
B0000000
B0000000
B0000000
CFFFFF70
ENDCHAR
STARTCHAR Ecircumflex
ENCODING 202
SWIDTH 754 0
DWIDTH 8 0
BBX 7 11 1 0
BITMAP
006A2000
06407200
00000000
CFFFFF60
B0000000
B0000000
CFFFFF20
B0000000
B0000000
B0000000
CFFFFF70
ENDCHAR
STARTCHAR Edieresis
ENCODING 203
SWIDTH 754 0
DWIDTH 8 0
BBX 7 10 1 0
BITMAP
0391B000
00000000
CFFFFF60
B0000000
B0000000
CFFFFF20
B0000000
B0000000
B0000000
CFFFFF70
ENDCHAR
STARTCHAR Igrave
ENCODING 204
SWIDTH 287 0
DWIDTH 3 0
BBX 4 11 -1 0
BITMAP
2A10
03A2
0000
00A0
00A0
00A0
00A0
00A0
00A0
00A0
00A0
ENDCHAR
STARTCHAR Iacute
ENCODING 205
SWIDTH 287 0
DWIDTH 3 0
BBX 3 11 1 0
BITMAP
1840
A400
0000
A000
A000
A000
A000
A000
A000
A000
A000
ENDCHAR
STARTCHAR Icircumflex
ENCODING 206
SWIDTH 287 0
DWIDTH 3 0
BBX 5 11 -1 0
BITMAP
03A400
360550
000000
00A000
00A000
00A000
00A000
00A000
00A000
00A000
00A000
ENDCHAR
STARTCHAR Idieresis
ENCODING 207
SWIDTH 287 0
DWIDTH 3 0
BBX 4 10 0 0
BITMAP
C0B1
0000
0A00
0A00
0A00
0A00
0A00
0A00
0A00
0A00
ENDCHAR
STARTCHAR Eth
ENCODING 208
SWIDTH 910 0
DWIDTH 10 0
BBX 10 8 0 0
BITMAP
0CFFFEC600
0A00014A90
0A000000B1
CFFFE00074
0A00000074
0A000000B1
0A00013990
0CFFFEC600
ENDCHAR
STARTCHAR Ntilde
ENCODING 209
SWIDTH 936 0
DWIDTH 10 0
BBX 9 11 1 0
BITMAP
005D480000
0082CA0000
0000000000
B600000910
A850000910
A094000910
A00A300910
A001A20910
A0001A1910
A00002AA10
A000003E10
ENDCHAR
STARTCHAR Ograve
ENCODING 210
SWIDTH 983 0
DWIDTH 11 0
BBX 11 11 0 0
BITMAP
000481000000
00004A000000
000000000000
004BEFDA3000
06C52026D400
1C1000002B00
380000000A10
480000000A10
1C1000002B00
07C41025C400
004BDFDA2000
ENDCHAR
STARTCHAR Oacute
ENCODING 211
SWIDTH 983 0
DWIDTH 11 0
BBX 11 11 0 0
BITMAP
000001A20000
00001A300000
000000000000
004BEFDA3000
06C52026D400
1C1000002B00
380000000A10
480000000A10
1C1000002B00
07C41025C400
004BDFDA2000
ENDCHAR
STARTCHAR Ocircumflex
ENCODING 212
SWIDTH 983 0
DWIDTH 11 0
BBX 11 11 0 0
BITMAP
00004A300000
000550630000
000000000000
004BEFDA3000
06C52026D400
1C1000002B00
380000000A10
480000000A10
1C1000002B00
07C41025C400
004BDFDA2000
ENDCHAR
STARTCHAR Otilde
ENCODING 213
SWIDTH 983 0
DWIDTH 11 0
BBX 11 11 0 0
BITMAP
0002D7540000
000639D10000
000000000000
004BEFDA3000
06C52026D400
1C1000002B00
380000000A10
480000000A10
1C1000002B00
07C41025C400
004BDFDA2000
ENDCHAR
STARTCHAR Odieresis
ENCODING 214
SWIDTH 983 0
DWIDTH 11 0
BBX 11 10 0 0
BITMAP
0001B0C00000
000000000000
004BEFDA3000
06C52026D400
1C1000002B00
380000000A10
480000000A10
1C1000002B00
07C41025C400
004BDFDA2000
ENDCHAR
STARTCHAR multiply
ENCODING 215
SWIDTH 634 0
DWIDTH 7 0
BBX 5 5 1 1
BITMAP
720370
1A3A10
02F200
1A4A00
720370
ENDCHAR
STARTCHAR Oslash
ENCODING 216
SWIDTH 983 0
DWIDTH 11 0
BBX 11 10 0 -1
BITMAP
00000000A000
004BEFEC5000
06C5203BC400
1C1000911B00
380007300A10
370056000A10
1B0280002B00
07BB1025C400
008CEFDA2000
019000000000
ENDCHAR
STARTCHAR Ugrave
ENCODING 217
SWIDTH 891 0
DWIDTH 10 0
BBX 8 11 1 0
BITMAP
00A30000
00185000
00000000
A0000019
A0000019
A0000019
A0000019
A0000019
B0000029
7A3114C4
07CEEC50
ENDCHAR
STARTCHAR Uacute
ENCODING 218
SWIDTH 891 0
DWIDTH 10 0
BBX 8 11 1 0
BITMAP
00005800
00076000
00000000
A0000019
A0000019
A0000019
A0000019
A0000019
B0000029
7A3114C4
07CEEC50
ENDCHAR
STARTCHAR Ucircumflex
ENCODING 219
SWIDTH 891 0
DWIDTH 10 0
BBX 8 11 1 0
BITMAP
00197000
01812700
00000000
A0000019
A0000019
A0000019
A0000019
A0000019
B0000029
7A3114C4
07CEEC50
ENDCHAR
STARTCHAR Udieresis
ENCODING 220
SWIDTH 891 0
DWIDTH 10 0
BBX 8 10 1 0
BITMAP
00936600
00000000
A0000019
A0000019
A0000019
A0000019
A0000019
B0000029
7A3114C4
07CEEC50
ENDCHAR
STARTCHAR Yacute
ENCODING 221
SWIDTH 763 0
DWIDTH 8 0
BBX 8 11 0 0
BITMAP
00003A00
00049100
00000000
48000039
075001A1
00A20920
001A6500
0004A000
00028000
00028000
00028000
ENDCHAR
STARTCHAR Thorn
ENCODING 222
SWIDTH 787 0
DWIDTH 9 0
BBX 7 8 1 0
BITMAP
A0000000
CFFFEB20
A00015B0
A00000B0
A00004B0
CFFFEB20
A0000000
A0000000
ENDCHAR
STARTCHAR germandbls
ENCODING 223
SWIDTH 863 0
DWIDTH 10 0
BBX 8 8 1 0
BITMAP
17DFEB40
982014C1
B00002B1
A08FFF60
A00013A6
A000000B
A0000279
A4FFFD81
ENDCHAR
STARTCHAR agrave
ENCODING 224
SWIDTH 888 0
DWIDTH 10 0
BBX 9 11 0 0
BITMAP
000A300000
0001840000
0000000000
09FFFEB400
0000013A40
0000000290
0027ACDF90
09B7431290
3800000190
3B30026C90
06DFEC8490
ENDCHAR
STARTCHAR aacute
ENCODING 225
SWIDTH 888 0
DWIDTH 10 0
BBX 9 11 0 0
BITMAP
0000068000
0000760000
0000000000
09FFFEB400
0000013A40
0000000290
0027ACDF90
09B7431290
3800000190
3B30026C90
06DFEC8490
ENDCHAR
STARTCHAR acircumflex
ENCODING 226
SWIDTH 888 0
DWIDTH 10 0
BBX 9 11 0 0
BITMAP
0001970000
0018137000
0000000000
09FFFEB400
0000013A40
0000000290
0027ACDF90
09B7431290
3800000190
3B30026C90
06DFEC8490
ENDCHAR
STARTCHAR atilde
ENCODING 227
SWIDTH 888 0
DWIDTH 10 0
BBX 9 11 0 0
BITMAP
000AB28000
00085D5000
0000000000
09FFFEB400
0000013A40
0000000290
0027ACDF90
09B7431290
3800000190
3B30026C90
06DFEC8490
ENDCHAR
STARTCHAR adieresis
ENCODING 228
SWIDTH 888 0
DWIDTH 10 0
BBX 9 10 0 0
BITMAP
000A275000
0000000000
09FFFEB400
0000013A40
0000000290
0027ACDF90
09B7431290
3800000190
3B30026C90
06DFEC8490
ENDCHAR
STARTCHAR aring
ENCODING 229
SWIDTH 888 0
DWIDTH 10 0
BBX 9 11 0 0
BITMAP
0005ED1000
0005ED1000
0000000000
09FFFEB400
0000013A40
0000000290
0027ACDF90
09B7431290
3800000190
3B30026C90
06DFEC8490
ENDCHAR
STARTCHAR ae
ENCODING 230
SWIDTH 1551 0
DWIDTH 17 0
BBX 17 8 0 0
BITMAP
09FFFEB503AEFD7000
0000013B8B41127A00
00000002C000000640
0027ACDFFFFFFFFF60
09B74311B000000000
38000000C300000000
3B30125ABD72100000
06DFEC9303ADFFFD00
ENDCHAR
STARTCHAR ccedilla
ENCODING 231
SWIDTH 869 0
DWIDTH 10 0
BBX 9 10 0 -2
BITMAP
004AEFD930
06C4101590
1C10000000
3800000000
3800000000
1C10000000
06C4101590
004BEFE930
00004E3000
0002FE2000
ENDCHAR
STARTCHAR egrave
ENCODING 232
SWIDTH 910 0
DWIDTH 10 0
BBX 10 11 0 0
BITMAP
0009500000
0000760000
0000000000
003BEFC500
05A3113880
1900000081
3FFFFFFFF4
4800000000
1D10000000
06D6100000
003AEFFFA0
ENDCHAR
STARTCHAR eacute
ENCODING 233
SWIDTH 910 0
DWIDTH 10 0
BBX 10 11 0 0
BITMAP
0000049000
0000571000
0000000000
003BEFC500
05A3113880
1900000081
3FFFFFFFF4
4800000000
1D10000000
06D6100000
003AEFFFA0
ENDCHAR
STARTCHAR ecircumflex
ENCODING 234
SWIDTH 910 0
DWIDTH 10 0
BBX 10 11 0 0
BITMAP
0000881000
0008228000
0000000000
003BEFC500
05A3113880
1900000081
3FFFFFFFF4
4800000000
1D10000000
06D6100000
003AEFFFA0
ENDCHAR
STARTCHAR edieresis
ENCODING 235
SWIDTH 910 0
DWIDTH 10 0
BBX 10 10 0 0
BITMAP
0007548000
0000000000
003BEFC500
05A3113880
1900000081
3FFFFFFFF4
4800000000
1D10000000
06D6100000
003AEFFFA0
ENDCHAR
STARTCHAR igrave
ENCODING 236
SWIDTH 287 0
DWIDTH 3 0
BBX 4 11 -1 0
BITMAP
2A10
0392
0000
00A0
00A0
00A0
00A0
00A0
00A0
00A0
00A0
ENDCHAR
STARTCHAR iacute
ENCODING 237
SWIDTH 287 0
DWIDTH 3 0
BBX 3 11 1 0
BITMAP
1850
A400
0000
A000
A000
A000
A000
A000
A000
A000
A000
ENDCHAR
STARTCHAR icircumflex
ENCODING 238
SWIDTH 287 0
DWIDTH 3 0
BBX 5 11 -1 0
BITMAP
03A400
360550
000000
00A000
00A000
00A000
00A000
00A000
00A000
00A000
00A000
ENDCHAR
STARTCHAR idieresis
ENCODING 239
SWIDTH 287 0
DWIDTH 3 0
BBX 4 10 0 0
BITMAP
C0B1
0000
0A00
0A00
0A00
0A00
0A00
0A00
0A00
0A00
ENDCHAR
STARTCHAR eth
ENCODING 240
SWIDTH 910 0
DWIDTH 10 0
BBX 10 8 0 0
BITMAP
0CFFFEC600
0A00014A90
0A000000B1
CFFFE00074
0A00000074
0A000000B1
0A00013990
0CFFFEC600
ENDCHAR
STARTCHAR ntilde
ENCODING 241
SWIDTH 933 0
DWIDTH 10 0
BBX 9 11 1 0
BITMAP
007D380000
0093D80000
0000000000
A05BEEB200
BCA4115B00
B300000B00
A000000910
A000000910
A000000910
A000000910
A000000910
ENDCHAR
STARTCHAR ograve
ENCODING 242
SWIDTH 983 0
DWIDTH 11 0
BBX 11 11 0 0
BITMAP
000481000000
00004A000000
000000000000
004BEFDA3000
06C52026D400
1C1000002B00
380000000A10
480000000A10
1C1000002B00
07C41025C400
004BDFDA2000
ENDCHAR
STARTCHAR oacute
ENCODING 243
SWIDTH 983 0
DWIDTH 11 0
BBX 11 11 0 0
BITMAP
000001A20000
00001A300000
000000000000
004BEFDA3000
06C52026D400
1C1000002B00
380000000A10
480000000A10
1C1000002B00
07C41025C400
004BDFDA2000
ENDCHAR
STARTCHAR ocircumflex
ENCODING 244
SWIDTH 983 0
DWIDTH 11 0
BBX 11 11 0 0
BITMAP
00004A300000
000550630000
000000000000
004BEFDA3000
06C52026D400
1C1000002B00
380000000A10
480000000A10
1C1000002B00
07C41025C400
004BDFDA2000
ENDCHAR
STARTCHAR otilde
ENCODING 245
SWIDTH 983 0
DWIDTH 11 0
BBX 11 11 0 0
BITMAP
0002D7540000
000639D10000
000000000000
004BEFDA3000
06C52026D400
1C1000002B00
380000000A10
480000000A10
1C1000002B00
07C41025C400
004BDFDA2000
ENDCHAR
STARTCHAR odieresis
ENCODING 246
SWIDTH 983 0
DWIDTH 11 0
BBX 11 10 0 0
BITMAP
0001B0C00000
000000000000
004BEFDA3000
06C52026D400
1C1000002B00
380000000A10
480000000A10
1C1000002B00
07C41025C400
004BDFDA2000
ENDCHAR
STARTCHAR divide
ENCODING 247
SWIDTH 634 0
DWIDTH 7 0
BBX 7 5 0 1
BITMAP
000B0000
00000000
1FFFFF10
00000000
000B0000
ENDCHAR
STARTCHAR oslash
ENCODING 248
SWIDTH 983 0
DWIDTH 11 0
BBX 11 10 0 -1
BITMAP
00000000A000
004BEFEC5000
06C5203BC400
1C1000911B00
380007300A10
370056000A10
1B0280002B00
07BB1025C400
008CEFDA2000
019000000000
ENDCHAR
STARTCHAR ugrave
ENCODING 249
SWIDTH 931 0
DWIDTH 10 0
BBX 8 11 1 0
BITMAP
00850000
00067000
00000000
A000000A
A000000A
A000000A
A000000A
A000000A
B000002D
881138DD
19EEC71A
ENDCHAR
STARTCHAR uacute
ENCODING 250
SWIDTH 931 0
DWIDTH 10 0
BBX 8 11 1 0
BITMAP
00003A00
00058100
00000000
A000000A
A000000A
A000000A
A000000A
A000000A
B000002D
881138DD
19EEC71A
ENDCHAR
STARTCHAR ucircumflex
ENCODING 251
SWIDTH 931 0
DWIDTH 10 0
BBX 8 11 1 0
BITMAP
00079100
00721810
00000000
A000000A
A000000A
A000000A
A000000A
A000000A
B000002D
881138DD
19EEC71A
ENDCHAR
STARTCHAR udieresis
ENCODING 252
SWIDTH 931 0
DWIDTH 10 0
BBX 8 10 1 0
BITMAP
00663900
00000000
A000000A
A000000A
A000000A
A000000A
A000000A
B000002D
881138DD
19EEC71A
ENDCHAR
STARTCHAR yacute
ENCODING 253
SWIDTH 911 0
DWIDTH 10 0
BBX 8 11 1 0
BITMAP
00005800
00076000
00000000
A000000A
A000000A
C000004B
992028CB
18DFD70A
0000002B
000026E4
FFFFDA40
ENDCHAR
STARTCHAR thorn
ENCODING 254
SWIDTH 787 0
DWIDTH 9 0
BBX 7 8 1 0
BITMAP
A0000000
CFFFEB20
A00015B0
A00000B0
A00004B0
CFFFEB20
A0000000
A0000000
ENDCHAR
STARTCHAR ydieresis
ENCODING 255
SWIDTH 911 0
DWIDTH 10 0
BBX 8 10 1 0
BITMAP
00937500
00000000
A000000A
A000000A
C000004B
992028CB
18DFD70A
0000002B
000026E4
FFFFDA40
ENDCHAR
STARTCHAR Amacron
ENCODING 256
SWIDTH 812 0
DWIDTH 9 0
BBX 9 10 0 0
BITMAP
000FFE0000
0000000000
0003F20000
000A690000
00290A2000
0092028000
0280009100
09FFFFF800
1A00000B10
8300000470
ENDCHAR
STARTCHAR amacron
ENCODING 257
SWIDTH 888 0
DWIDTH 10 0
BBX 9 10 0 0
BITMAP
000AFF5000
0000000000
09FFFEB400
0000013A40
0000000290
0027ACDF90
09B7431290
3800000190
3B30026C90
06DFEC8490
ENDCHAR
STARTCHAR Abreve
ENCODING 258
SWIDTH 812 0
DWIDTH 9 0
BBX 9 11 0 0
BITMAP
0048193000
0009E90000
0000000000
0003F20000
000A690000
00290A2000
0092028000
0280009100
09FFFFF800
1A00000B10
8300000470
ENDCHAR
STARTCHAR abreve
ENCODING 259
SWIDTH 888 0
DWIDTH 10 0
BBX 9 11 0 0
BITMAP
000B148000
0005EC2000
0000000000
09FFFEB400
0000013A40
0000000290
0027ACDF90
09B7431290
3800000190
3B30026C90
06DFEC8490
ENDCHAR
STARTCHAR Aogonek
ENCODING 260
SWIDTH 812 0
DWIDTH 9 0
BBX 10 10 0 -2
BITMAP
0003E20000
0009390000
0028092000
0091028000
0280008100
09FFFFF800
1A00000B10
8300000470
0000000720
0000000BF7
ENDCHAR
STARTCHAR aogonek
ENCODING 261
SWIDTH 888 0
DWIDTH 10 0
BBX 10 10 0 -2
BITMAP
09FFFEB400
0000013A40
0000000290
0027ACDF90
09B7431290
3800000190
3B30024990
06DFEC8490
0000000710
0000000CF6
ENDCHAR
STARTCHAR Cacute
ENCODING 262
SWIDTH 869 0
DWIDTH 10 0
BBX 9 11 0 0
BITMAP
000002A200
0000292000
0000000000
004AEFD930
06C4101590
1C10000000
3800000000
3800000000
1C10000000
06C4101590
004BEFE930
ENDCHAR
STARTCHAR cacute
ENCODING 263
SWIDTH 869 0
DWIDTH 10 0
BBX 9 11 0 0
BITMAP
000002A200
0000292000
0000000000
004AEFD930
06C4101590
1C10000000
3800000000
3800000000
1C10000000
06C4101590
004BEFE930
ENDCHAR
STARTCHAR Ccircumflex
ENCODING 264
SWIDTH 869 0
DWIDTH 10 0
BBX 9 11 0 0
BITMAP
00005A2000
0005407300
0000000000
004AEFD930
06C4101590
1C10000000
3800000000
3800000000
1C10000000
06C4101590
004BEFE930
ENDCHAR
STARTCHAR ccircumflex
ENCODING 265
SWIDTH 869 0
DWIDTH 10 0
BBX 9 11 0 0
BITMAP
00005A2000
0005507300
0000000000
004AEFD930
06C4101590
1C10000000
3800000000
3800000000
1C10000000
06C4101590
004BEFE930
ENDCHAR
STARTCHAR Cdotaccent
ENCODING 266
SWIDTH 869 0
DWIDTH 10 0
BBX 9 10 0 0
BITMAP
00001C0000
0000000000
004AEFD930
06C4101590
1C10000000
3800000000
3800000000
1C10000000
06C4101590
004BEFE930
ENDCHAR
STARTCHAR cdotaccent
ENCODING 267
SWIDTH 869 0
DWIDTH 10 0
BBX 9 10 0 0
BITMAP
00001C0000
0000000000
004AEFD930
06C4101590
1C10000000
3800000000
3800000000
1C10000000
06C4101590
004BEFE930
ENDCHAR
STARTCHAR Ccaron
ENCODING 268
SWIDTH 869 0
DWIDTH 10 0
BBX 9 11 0 0
BITMAP
0005407300
00005A2000
0000000000
004AEFD930
06C4101590
1C10000000
3800000000
3800000000
1C10000000
06C4101590
004BEFE930
ENDCHAR
STARTCHAR ccaron
ENCODING 269
SWIDTH 869 0
DWIDTH 10 0
BBX 9 11 0 0
BITMAP
0005507300
00005A3000
0000000000
004AEFD930
06C4101590
1C10000000
3800000000
3800000000
1C10000000
06C4101590
004BEFE930
ENDCHAR
STARTCHAR Dcaron
ENCODING 270
SWIDTH 910 0
DWIDTH 10 0
BBX 9 11 1 0
BITMAP
0631720000
006A100000
0000000000
CFFFEC7000
A000029900
A000000B10
A000000740
A000000740
A000000B10
A00013A900
CFFFFD7000
ENDCHAR
STARTCHAR dcaron
ENCODING 271
SWIDTH 910 0
DWIDTH 10 0
BBX 9 11 1 0
BITMAP
0631720000
006A200000
0000000000
CFFFEC7000
A000029900
A000000B10
A000000740
A000000740
A000000B10
A00013A900
CFFFFD7000
ENDCHAR
STARTCHAR Dcroat
ENCODING 272
SWIDTH 910 0
DWIDTH 10 0
BBX 10 8 0 0
BITMAP
0CFFFEC600
0A00014A90
0A000000B1
CFFFE00074
0A00000074
0A000000B1
0A00013990
0CFFFEC600
ENDCHAR
STARTCHAR dcroat
ENCODING 273
SWIDTH 910 0
DWIDTH 10 0
BBX 10 8 0 0
BITMAP
0CFFFEC600
0A00014A90
0A000000B1
CFFFE00074
0A00000074
0A000000B1
0A00013990
0CFFFEC600
ENDCHAR
STARTCHAR Emacron
ENCODING 274
SWIDTH 754 0
DWIDTH 8 0
BBX 7 10 1 0
BITMAP
03FFB000
00000000
CFFFFF60
B0000000
B0000000
CFFFFF20
B0000000
B0000000
B0000000
CFFFFF70
ENDCHAR
STARTCHAR emacron
ENCODING 275
SWIDTH 910 0
DWIDTH 10 0
BBX 10 10 0 0
BITMAP
0007FF8000
0000000000
003BEFC500
05A3113880
1900000081
3FFFFFFFF4
4800000000
1D10000000
06D6100000
003AEFFFA0
ENDCHAR
STARTCHAR Ebreve
ENCODING 276
SWIDTH 754 0
DWIDTH 8 0
BBX 7 11 1 0
BITMAP
0751B000
01BE6000
00000000
CFFFFF60
B0000000
B0000000
CFFFFF20
B0000000
B0000000
B0000000
CFFFFF70
ENDCHAR
STARTCHAR ebreve
ENCODING 277
SWIDTH 910 0
DWIDTH 10 0
BBX 10 11 0 0
BITMAP
000A32A000
0003DD3000
0000000000
003BEFC500
05A3113880
1900000081
3FFFFFFFF4
4800000000
1D10000000
06D6100000
003AEFFFA0
ENDCHAR
STARTCHAR Edotaccent
ENCODING 278
SWIDTH 754 0
DWIDTH 8 0
BBX 7 10 1 0
BITMAP
002A0000
00000000
CFFFFF60
B0000000
B0000000
CFFFFF20
B0000000
B0000000
B0000000
CFFFFF70
ENDCHAR
STARTCHAR edotaccent
ENCODING 279
SWIDTH 910 0
DWIDTH 10 0
BBX 10 10 0 0
BITMAP
0000670000
0000000000
003BEFC500
05A3113880
1900000081
3FFFFFFFF4
4800000000
1D10000000
06D6100000
003AEFFFA0
ENDCHAR
STARTCHAR Eogonek
ENCODING 280
SWIDTH 754 0
DWIDTH 8 0
BBX 7 10 1 -2
BITMAP
CFFFFF60
B0000000
B0000000
CFFFFF20
B0000000
B0000000
B0000000
CFFFFF70
00007300
0000AF70
ENDCHAR
STARTCHAR eogonek
ENCODING 281
SWIDTH 910 0
DWIDTH 10 0
BBX 10 10 0 -2
BITMAP
003BEFC500
05A3113880
1900000081
3FFFFFFFF4
4800000000
1D10000000
06D6100000
004BEFFFA0
0000001910
0000001DF2
ENDCHAR
STARTCHAR Ecaron
ENCODING 282
SWIDTH 754 0
DWIDTH 8 0
BBX 7 11 1 0
BITMAP
06407200
006A2000
00000000
CFFFFF60
B0000000
B0000000
CFFFFF20
B0000000
B0000000
B0000000
CFFFFF70
ENDCHAR
STARTCHAR ecaron
ENCODING 283
SWIDTH 910 0
DWIDTH 10 0
BBX 10 11 0 0
BITMAP
0008218000
0000881000
0000000000
003BEFC500
05A3113880
1900000081
3FFFFFFFF4
4800000000
1D10000000
06D6100000
003AEFFFA0
ENDCHAR
STARTCHAR Gcircumflex
ENCODING 284
SWIDTH 910 0
DWIDTH 10 0
BBX 10 11 0 0
BITMAP
00004A3000
0004506400
0000000000
003AEFEA30
05C52015A0
1C00000000
3700000000
380008FFF2
1C10000082
06C51002A2
003ADFEC91
ENDCHAR
STARTCHAR gcircumflex
ENCODING 285
SWIDTH 910 0
DWIDTH 10 0
BBX 10 11 0 0
BITMAP
00004A3000
0004506400
0000000000
003AEFEA30
05C52015A0
1C00000000
3700000000
380008FFF2
1C10000082
06C51002A2
003ADFEC91
ENDCHAR
STARTCHAR Gbreve
ENCODING 286
SWIDTH 910 0
DWIDTH 10 0
BBX 10 11 0 0
BITMAP
0004819300
0000AE8000
0000000000
003AEFEA30
05C52015A0
1C00000000
3700000000
380008FFF2
1C10000082
06C51002A2
003ADFEC91
ENDCHAR
STARTCHAR gbreve
ENCODING 287
SWIDTH 910 0
DWIDTH 10 0
BBX 10 11 0 0
BITMAP
0004819300
0000AE8000
0000000000
003AEFEA30
05C52015A0
1C00000000
3700000000
380008FFF2
1C10000082
06C51002A2
003ADFEC91
ENDCHAR
STARTCHAR Gdotaccent
ENCODING 288
SWIDTH 910 0
DWIDTH 10 0
BBX 10 10 0 0
BITMAP
00000C0000
0000000000
003AEFEA30
05C52015A0
1C00000000
3700000000
380008FFF2
1C10000082
06C51002A2
003ADFEC91
ENDCHAR
STARTCHAR gdotaccent
ENCODING 289
SWIDTH 910 0
DWIDTH 10 0
BBX 10 10 0 0
BITMAP
00000C0000
0000000000
003AEFEA30
05C52015A0
1C00000000
3700000000
380008FFF2
1C10000082
06C51002A2
003ADFEC91
ENDCHAR
STARTCHAR Gcommaaccent
ENCODING 290
SWIDTH 910 0
DWIDTH 10 0
BBX 10 11 0 -3
BITMAP
003AEFEA30
05C52015A0
1C00000000
3700000000
380008FFF2
1C10000082
06C51002A2
003ADFEC91
0000000000
00000B0000
0000090000
ENDCHAR
STARTCHAR gcommaaccent
ENCODING 291
SWIDTH 910 0
DWIDTH 10 0
BBX 10 11 0 -3
BITMAP
003AEFEA30
05C52015A0
1C00000000
3700000000
380008FFF2
1C10000082
06C51002A2
003ADFEC91
0000000000
00000B0000
0000090000
ENDCHAR
STARTCHAR Hcircumflex
ENCODING 292
SWIDTH 949 0
DWIDTH 10 0
BBX 9 11 1 0
BITMAP
0006A20000
0063172000
0000000000
A000000730
A000000730
A000000730
CFFFFFFF30
A000000730
A000000730
A000000730
A000000730
ENDCHAR
STARTCHAR hcircumflex
ENCODING 293
SWIDTH 949 0
DWIDTH 10 0
BBX 9 11 1 0
BITMAP
0006A20000
0063172000
0000000000
A000000730
A000000730
A000000730
CFFFFFFF30
A000000730
A000000730
A000000730
A000000730
ENDCHAR
STARTCHAR Hbar
ENCODING 294
SWIDTH 949 0
DWIDTH 10 0
BBX 11 8 0 0
BITMAP
0A0000007300
BFFFFFFFFF20
0A0000007300
0CFFFFFFF300
0A0000007300
0A0000007300
0A0000007300
0A0000007300
ENDCHAR
STARTCHAR hbar
ENCODING 295
SWIDTH 949 0
DWIDTH 10 0
BBX 11 8 0 0
BITMAP
0A0000007300
BFFFFFFFFF20
0A0000007300
0CFFFFFFF300
0A0000007300
0A0000007300
0A0000007300
0A0000007300
ENDCHAR
STARTCHAR Itilde
ENCODING 296
SWIDTH 287 0
DWIDTH 3 0
BBX 5 11 -1 0
BITMAP
1D9360
457E20
000000
00A000
00A000
00A000
00A000
00A000
00A000
00A000
00A000
ENDCHAR
STARTCHAR itilde
ENCODING 297
SWIDTH 287 0
DWIDTH 3 0
BBX 5 11 -1 0
BITMAP
1D9360
457E20
000000
00A000
00A000
00A000
00A000
00A000
00A000
00A000
00A000
ENDCHAR
STARTCHAR Imacron
ENCODING 298
SWIDTH 287 0
DWIDTH 3 0
BBX 4 10 0 0
BITMAP
EFF1
0000
0A00
0A00
0A00
0A00
0A00
0A00
0A00
0A00
ENDCHAR
STARTCHAR imacron
ENCODING 299
SWIDTH 287 0
DWIDTH 3 0
BBX 4 10 0 0
BITMAP
DFF1
0000
0A00
0A00
0A00
0A00
0A00
0A00
0A00
0A00
ENDCHAR
STARTCHAR Ibreve
ENCODING 300
SWIDTH 287 0
DWIDTH 3 0
BBX 5 11 -1 0
BITMAP
291740
08EA00
000000
00A000
00A000
00A000
00A000
00A000
00A000
00A000
00A000
ENDCHAR
STARTCHAR ibreve
ENCODING 301
SWIDTH 287 0
DWIDTH 3 0
BBX 5 11 -1 0
BITMAP
2A1750
08EA00
000000
00A000
00A000
00A000
00A000
00A000
00A000
00A000
00A000
ENDCHAR
STARTCHAR Iogonek
ENCODING 302
SWIDTH 287 0
DWIDTH 3 0
BBX 3 10 0 -2
BITMAP
0A00
0A00
0A00
0A00
0A00
0A00
0A00
0A00
6300
8F90
ENDCHAR
STARTCHAR iogonek
ENCODING 303
SWIDTH 287 0
DWIDTH 3 0
BBX 3 10 0 -2
BITMAP
0A00
0A00
0A00
0A00
0A00
0A00
0A00
0A00
6300
8F90
ENDCHAR
STARTCHAR Idotaccent
ENCODING 304
SWIDTH 287 0
DWIDTH 3 0
BBX 1 10 1 0
BITMAP
C0
00
A0
A0
A0
A0
A0
A0
A0
A0
ENDCHAR
STARTCHAR dotlessi
ENCODING 305
SWIDTH 287 0
DWIDTH 3 0
BBX 1 8 1 0
BITMAP
A0
A0
A0
A0
A0
A0
A0
A0
ENDCHAR
STARTCHAR IJ
ENCODING 306
SWIDTH 877 0
DWIDTH 10 0
BBX 8 8 1 0
BITMAP
A0000037
A0000037
A0000037
A0000037
A0000037
A0000046
A00002C3
A0DFFD50
ENDCHAR
STARTCHAR ij
ENCODING 307
SWIDTH 877 0
DWIDTH 10 0
BBX 8 8 1 0
BITMAP
A0000037
A0000037
A0000037
A0000037
A0000037
A0000046
A00002C3
A0DFFD50
ENDCHAR
STARTCHAR Jcircumflex
ENCODING 308
SWIDTH 590 0
DWIDTH 7 0
BBX 7 11 0 0
BITMAP
00018800
00081280
00000000
00006400
00006400
00006400
00006400
00006400
00007400
0003D100
FFFC4000
ENDCHAR
STARTCHAR jcircumflex
ENCODING 309
SWIDTH 590 0
DWIDTH 7 0
BBX 7 11 0 0
BITMAP
00018800
00081280
00000000
00006400
00006400
00006400
00006400
00006400
00007400
0003D100
FFFC4000
ENDCHAR
STARTCHAR Kcommaaccent
ENCODING 310
SWIDTH 806 0
DWIDTH 9 0
BBX 8 11 1 -3
BITMAP
A0000681
A0019500
A05A1000
B9700000
A5A20000
A02B5000
A0008900
A00004B3
00000000
000B0000
00090000
ENDCHAR
STARTCHAR kcommaaccent
ENCODING 311
SWIDTH 867 0
DWIDTH 10 0
BBX 8 11 1 -3
BITMAP
A0000074
A00003B0
A0138A10
CFFF8100
A0138C30
A00002C1
A0000048
A000000A
00000000
00092000
00090000
ENDCHAR
STARTCHAR kgreenlandic
ENCODING 312
SWIDTH 867 0
DWIDTH 10 0
BBX 8 8 1 0
BITMAP
A0000074
A00003B0
A0138A10
CFFF8100
A0138C30
A00002C1
A0000048
A000000A
ENDCHAR
STARTCHAR Lacute
ENCODING 313
SWIDTH 701 0
DWIDTH 8 0
BBX 7 11 1 0
BITMAP
18500000
A4000000
00000000
A0000000
A0000000
A0000000
A0000000
A0000000
A0000000
A0000000
CFFFFF50
ENDCHAR
STARTCHAR lacute
ENCODING 314
SWIDTH 709 0
DWIDTH 8 0
BBX 7 11 1 0
BITMAP
18500000
A4000000
00000000
A0000000
A0000000
A0000000
A0000000
A0000000
A0000000
97100000
2BEFFFB0
ENDCHAR
STARTCHAR Lcommaaccent
ENCODING 315
SWIDTH 701 0
DWIDTH 8 0
BBX 7 11 1 -3
BITMAP
A0000000
A0000000
A0000000
A0000000
A0000000
A0000000
A0000000
CFFFFF50
00000000
001A0000
00270000
ENDCHAR
STARTCHAR lcommaaccent
ENCODING 316
SWIDTH 709 0
DWIDTH 8 0
BBX 7 11 1 -3
BITMAP
A0000000
A0000000
A0000000
A0000000
A0000000
A0000000
97100000
2BEFFFB0
00000000
000B0000
00090000
ENDCHAR
STARTCHAR Lcaron
ENCODING 317
SWIDTH 701 0
DWIDTH 8 0
BBX 7 8 1 0
BITMAP
A000A000
A0036000
A0000000
A0000000
A0000000
A0000000
A0000000
CFFFFF50
ENDCHAR
STARTCHAR lcaron
ENCODING 318
SWIDTH 709 0
DWIDTH 8 0
BBX 7 8 1 0
BITMAP
A000B000
A0027000
A0000000
A0000000
A0000000
A0000000
97100000
2BEFFFB0
ENDCHAR
STARTCHAR Ldot
ENCODING 319
SWIDTH 701 0
DWIDTH 8 0
BBX 7 8 1 0
BITMAP
A0000000
A0000000
A0000000
A0000000
A001D000
A0000000
A0000000
CFFFFF50
ENDCHAR
STARTCHAR ldotaccent
ENCODING 320
SWIDTH 709 0
DWIDTH 8 0
BBX 7 8 1 0
BITMAP
A0000000
A0000000
A0000000
A0000000
A000E000
A0000000
97100000
2BEFFFB0
ENDCHAR
STARTCHAR Lslash
ENCODING 321
SWIDTH 701 0
DWIDTH 8 0
BBX 8 8 0 0
BITMAP
0A000000
0A000000
0A000000
0B8C0000
BD400000
0A000000
0A000000
0CFFFFF5
ENDCHAR
STARTCHAR lslash
ENCODING 322
SWIDTH 709 0
DWIDTH 8 0
BBX 8 8 0 0
BITMAP
0A000000
0A000000
0A000000
0B8C0000
BD400000
0A000000
09610000
02BEFFFB
ENDCHAR
STARTCHAR Nacute
ENCODING 323
SWIDTH 936 0
DWIDTH 10 0
BBX 9 11 1 0
BITMAP
00003A0000
0004810000
0000000000
B600000910
A850000910
A094000910
A00A300910
A001A20910
A0001A1910
A00002AA10
A000003E10
ENDCHAR
STARTCHAR nacute
ENCODING 324
SWIDTH 933 0
DWIDTH 10 0
BBX 9 11 1 0
BITMAP
0000490000
0005710000
0000000000
A05BEEB200
BCA4115B00
B300000B00
A000000910
A000000910
A000000910
A000000910
A000000910
ENDCHAR
STARTCHAR Ncommaaccent
ENCODING 325
SWIDTH 936 0
DWIDTH 10 0
BBX 9 11 1 -3
BITMAP
B600000910
A850000910
A094000910
A00A300910
A001A20910
A0001A1910
A00002AA10
A000003E10
0000000000
0003800000
0005400000
ENDCHAR
STARTCHAR ncommaaccent
ENCODING 326
SWIDTH 933 0
DWIDTH 10 0
BBX 9 11 1 -3
BITMAP
A05BEEB200
BCA4115B00
B300000B00
A000000910
A000000910
A000000910
A000000910
A000000910
0000000000
0003800000
0005400000
ENDCHAR
STARTCHAR Ncaron
ENCODING 327
SWIDTH 936 0
DWIDTH 10 0
BBX 9 11 1 0
BITMAP
0073181000
0007910000
0000000000
B600000910
A850000910
A094000910
A00A300910
A001A20910
A0001A1910
A00002AA10
A000003E10
ENDCHAR
STARTCHAR ncaron
ENCODING 328
SWIDTH 933 0
DWIDTH 10 0
BBX 9 11 1 0
BITMAP
0082180000
0008810000
0000000000
A05BEEB200
BCA4115B00
B300000B00
A000000910
A000000910
A000000910
A000000910
A000000910
ENDCHAR
STARTCHAR napostrophe
ENCODING 329
SWIDTH 1025 0
DWIDTH 11 0
BBX 11 8 0 0
BITMAP
A0A05BEEB200
90BCA4115C00
00B300000A10
00A000000910
00A000000910
00A000000910
00A000000910
00A000000910
ENDCHAR
STARTCHAR Eng
ENCODING 330
SWIDTH 936 0
DWIDTH 10 0
BBX 9 8 1 0
BITMAP
B800000910
A4A1000910
A02A300910
A001A50910
A000087910
A000006E10
A000003B00
A00CFFC300
ENDCHAR
STARTCHAR eng
ENCODING 331
SWIDTH 933 0
DWIDTH 10 0
BBX 9 8 1 0
BITMAP
A05BEEB200
BCA4115B00
B300000A00
A000000910
A000000910
A000000A10
A000004C00
A00AFFC300
ENDCHAR
STARTCHAR Omacron
ENCODING 332
SWIDTH 983 0
DWIDTH 11 0
BBX 11 10 0 0
BITMAP
0001FFD00000
000000000000
004BEFDA3000
06C52026D400
1C1000002B00
380000000A10
480000000A10
1C1000002B00
07C41025C400
004BDFDA2000
ENDCHAR
STARTCHAR omacron
ENCODING 333
SWIDTH 983 0
DWIDTH 11 0
BBX 11 10 0 0
BITMAP
0001FFD00000
000000000000
004BEFDA3000
06C52026D400
1C1000002B00
380000000A10
480000000A10
1C1000002B00
07C41025C400
004BDFDA2000
ENDCHAR
STARTCHAR Obreve
ENCODING 334
SWIDTH 983 0
DWIDTH 11 0
BBX 11 11 0 0
BITMAP
000571A20000
0000AE800000
000000000000
004BEFDA3000
06C52026D400
1C1000002B00
380000000A10
480000000A10
1C1000002B00
07C41025C400
004BDFDA2000
ENDCHAR
STARTCHAR obreve
ENCODING 335
SWIDTH 983 0
DWIDTH 11 0
BBX 11 11 0 0
BITMAP
000571A20000
0000AE800000
000000000000
004BEFDA3000
06C52026D400
1C1000002B00
380000000A10
480000000A10
1C1000002B00
07C41025C400
004BDFDA2000
ENDCHAR
STARTCHAR Ohungarumlaut
ENCODING 336
SWIDTH 983 0
DWIDTH 11 0
BBX 11 11 0 0
BITMAP
000028470000
000092910000
000000000000
004BEFDA3000
06C52026D400
1C1000002B00
380000000A10
480000000A10
1C1000002B00
07C41025C400
004BDFDA2000
ENDCHAR
STARTCHAR ohungarumlaut
ENCODING 337
SWIDTH 983 0
DWIDTH 11 0
BBX 11 11 0 0
BITMAP
000028470000
000092910000
000000000000
004BEFDA3000
06C52026D400
1C1000002B00
380000000A10
480000000A10
1C1000002B00
07C41025C400
004BDFDA2000
ENDCHAR
STARTCHAR OE
ENCODING 338
SWIDTH 1338 0
DWIDTH 15 0
BBX 14 8 0 0
BITMAP
004BEFFFFFFFFC
06C52016600000
1C100005600000
37000005FFFFF8
48000005600000
1C000005600000
07B41016600000
004BDFFFFFFFFD
ENDCHAR
STARTCHAR oe
ENCODING 339
SWIDTH 1688 0
DWIDTH 19 0
BBX 18 8 0 0
BITMAP
004BEFDA3007CEEB40
06C52026D4972014B3
1C1000002D50000009
380000000AFFFFFFFE
480000000A30000000
1C1000002DA0000000
07C41025C4AA410000
004BDFEA3006CEFFF5
ENDCHAR
STARTCHAR Racute
ENCODING 340
SWIDTH 833 0
DWIDTH 9 0
BBX 8 11 1 0
BITMAP
0003A000
00481000
00000000
CFFFEB30
A00014C0
A00000A1
A00014C0
CFFFFC40
A0002A00
A0000480
A0000075
ENDCHAR
STARTCHAR racute
ENCODING 341
SWIDTH 609 0
DWIDTH 7 0
BBX 6 11 1 0
BITMAP
000760
009500
000000
A06CFA
AB8301
B40000
A00000
A00000
A00000
A00000
A00000
ENDCHAR
STARTCHAR Rcommaaccent
ENCODING 342
SWIDTH 833 0
DWIDTH 9 0
BBX 8 11 1 -3
BITMAP
CFFFEB30
A00014C0
A00000A1
A00014C0
CFFFFC40
A0002A00
A0000480
A0000075
00000000
000B0000
00090000
ENDCHAR
STARTCHAR rcommaaccent
ENCODING 343
SWIDTH 609 0
DWIDTH 7 0
BBX 6 11 1 -3
BITMAP
A06CFA
AB8301
B40000
A00000
A00000
A00000
A00000
A00000
000000
B00000
900000
ENDCHAR
STARTCHAR Rcaron
ENCODING 344
SWIDTH 833 0
DWIDTH 9 0
BBX 8 11 1 0
BITMAP
07318100
00791000
00000000
CFFFEB30
A00014C0
A00000A1
A00014C0
CFFFFC40
A0002A00
A0000480
A0000075
ENDCHAR
STARTCHAR rcaron
ENCODING 345
SWIDTH 609 0
DWIDTH 7 0
BBX 6 11 1 0
BITMAP
370460
02A500
000000
A06CFA
AB8301
B40000
A00000
A00000
A00000
A00000
A00000
ENDCHAR
STARTCHAR Sacute
ENCODING 346
SWIDTH 787 0
DWIDTH 9 0
BBX 8 11 0 0
BITMAP
00002A10
00039200
00000000
04BEFFF3
0C310000
0B200000
02AD9500
000148C3
0000001B
0000027A
1FFFFD91
ENDCHAR
STARTCHAR sacute
ENCODING 347
SWIDTH 787 0
DWIDTH 9 0
BBX 8 11 0 0
BITMAP
00002A10
00039200
00000000
04BEFFF3
0C310000
0B200000
02AD9500
000148C3
0000001B
0000027A
1FFFFD91
ENDCHAR
STARTCHAR Scircumflex
ENCODING 348
SWIDTH 787 0
DWIDTH 9 0
BBX 8 11 0 0
BITMAP
0006A200
00640720
00000000
04BEFFF3
0C310000
0B200000
02AD9500
000148C3
0000001B
0000027A
1FFFFD91
ENDCHAR
STARTCHAR scircumflex
ENCODING 349
SWIDTH 787 0
DWIDTH 9 0
BBX 8 11 0 0
BITMAP
0006A200
00640720
00000000
04BEFFF3
0C310000
0B200000
02AD9500
000148C3
0000001B
0000027A
1FFFFD91
ENDCHAR
STARTCHAR Scedilla
ENCODING 350
SWIDTH 787 0
DWIDTH 9 0
BBX 8 10 0 -2
BITMAP
04BEFFF3
0C410000
0B200000
03AD9500
000148C3
0000001B
0000027A
1FFFFD91
0001F500
000EF500
ENDCHAR
STARTCHAR scedilla
ENCODING 351
SWIDTH 787 0
DWIDTH 9 0
BBX 8 10 0 -2
BITMAP
04BEFFF3
0C410000
0B200000
03AD9500
000148C3
0000001B
0000027A
1FFFFD91
0001F500
000EF500
ENDCHAR
STARTCHAR Scaron
ENCODING 352
SWIDTH 787 0
DWIDTH 9 0
BBX 8 11 0 0
BITMAP
00640720
0006A200
00000000
04BEFFF3
0C310000
0B200000
02AD9500
000148C3
0000001B
0000027A
1FFFFD91
ENDCHAR
STARTCHAR scaron
ENCODING 353
SWIDTH 787 0
DWIDTH 9 0
BBX 8 11 0 0
BITMAP
00640720
0006A200
00000000
04BEFFF3
0C310000
0B200000
02AD9500
000148C3
0000001B
0000027A
1FFFFD91
ENDCHAR
STARTCHAR Tcommaaccent
ENCODING 354
SWIDTH 708 0
DWIDTH 8 0
BBX 8 11 0 -3
BITMAP
CFFFFFF9
00074000
00074000
00074000
00074000
00074000
00074000
00074000
00000000
00074000
00081000
ENDCHAR
STARTCHAR tcommaaccent
ENCODING 355
SWIDTH 708 0
DWIDTH 8 0
BBX 8 11 0 -3
BITMAP
CFFFFFF9
00074000
00074000
00074000
00074000
00074000
00074000
00074000
00000000
00074000
00081000
ENDCHAR
STARTCHAR Tcaron
ENCODING 356
SWIDTH 708 0
DWIDTH 8 0
BBX 8 11 0 0
BITMAP
01812700
00197000
00000000
CFFFFFF9
00074000
00074000
00074000
00074000
00074000
00074000
00074000
ENDCHAR
STARTCHAR tcaron
ENCODING 357
SWIDTH 708 0
DWIDTH 8 0
BBX 8 11 0 0
BITMAP
01812700
00198000
00000000
CFFFFFF9
00074000
00074000
00074000
00074000
00074000
00074000
00074000
ENDCHAR
STARTCHAR Tbar
ENCODING 358
SWIDTH 708 0
DWIDTH 8 0
BBX 8 8 0 0
BITMAP
CFFFFFF9
00074000
00074000
0FFFFFC0
00074000
00074000
00074000
00074000
ENDCHAR
STARTCHAR tbar
ENCODING 359
SWIDTH 708 0
DWIDTH 8 0
BBX 8 8 0 0
BITMAP
CFFFFFF9
00074000
00074000
0FFFFFC0
00074000
00074000
00074000
00074000
ENDCHAR
STARTCHAR Utilde
ENCODING 360
SWIDTH 891 0
DWIDTH 10 0
BBX 8 11 1 0
BITMAP
008C3800
0094D600
00000000
A0000019
A0000019
A0000019
A0000019
A0000019
B0000029
7A3114C4
07CEEC50
ENDCHAR
STARTCHAR utilde
ENCODING 361
SWIDTH 931 0
DWIDTH 10 0
BBX 8 11 1 0
BITMAP
006D4800
0082C900
00000000
A000000A
A000000A
A000000A
A000000A
A000000A
B000002D
881138DD
19EEC71A
ENDCHAR
STARTCHAR Umacron
ENCODING 362
SWIDTH 891 0
DWIDTH 10 0
BBX 8 10 1 0
BITMAP
009FF600
00000000
A0000019
A0000019
A0000019
A0000019
A0000019
B0000029
7A3114C4
07CEEC50
ENDCHAR
STARTCHAR umacron
ENCODING 363
SWIDTH 931 0
DWIDTH 10 0
BBX 8 10 1 0
BITMAP
006FF900
00000000
A000000A
A000000A
A000000A
A000000A
A000000A
B000002D
881138DD
19EEC71A
ENDCHAR
STARTCHAR Ubreve
ENCODING 364
SWIDTH 891 0
DWIDTH 10 0
BBX 8 11 1 0
BITMAP
00B23900
004ED200
00000000
A0000019
A0000019
A0000019
A0000019
A0000019
B0000029
7A3114C4
07CEEC50
ENDCHAR
STARTCHAR ubreve
ENCODING 365
SWIDTH 931 0
DWIDTH 10 0
BBX 8 11 1 0
BITMAP
00932A00
002DE400
00000000
A000000A
A000000A
A000000A
A000000A
A000000A
B000002D
881138DD
19EEC71A
ENDCHAR
STARTCHAR Uring
ENCODING 366
SWIDTH 891 0
DWIDTH 10 0
BBX 8 11 1 0
BITMAP
004ED200
004ED200
00000000
A0000019
A0000019
A0000019
A0000019
A0000019
B0000029
7A3114C4
07CEEC50
ENDCHAR
STARTCHAR uring
ENCODING 367
SWIDTH 931 0
DWIDTH 10 0
BBX 8 11 1 0
BITMAP
002DE400
002DE400
00000000
A000000A
A000000A
A000000A
A000000A
A000000A
B000002D
881138DD
19EEC71A
ENDCHAR
STARTCHAR Uhungarumlaut
ENCODING 368
SWIDTH 891 0
DWIDTH 10 0
BBX 8 11 1 0
BITMAP
00092910
00657400
00000000
A0000019
A0000019
A0000019
A0000019
A0000019
B0000029
7A3114C4
07CEEC50
ENDCHAR
STARTCHAR uhungarumlaut
ENCODING 369
SWIDTH 931 0
DWIDTH 10 0
BBX 8 11 1 0
BITMAP
00064730
00374600
00000000
A000000A
A000000A
A000000A
A000000A
A000000A
B000002D
881138DD
19EEC71A
ENDCHAR
STARTCHAR Uogonek
ENCODING 370
SWIDTH 891 0
DWIDTH 10 0
BBX 8 10 1 -2
BITMAP
A0000019
A0000019
A0000019
A0000019
A0000019
B0000029
8A3114C4
07CFEC50
00090000
000DF400
ENDCHAR
STARTCHAR uogonek
ENCODING 371
SWIDTH 931 0
DWIDTH 10 0
BBX 9 10 1 -2
BITMAP
A000000A00
A000000A00
A000000A00
A000000A00
A000000A00
B000002D00
881138DD00
19EEC71A00
0000004400
0000007FB0
ENDCHAR
STARTCHAR Wcircumflex
ENCODING 372
SWIDTH 1266 0
DWIDTH 14 0
BBX 14 11 0 0
BITMAP
00000198000000
00000812800000
00000000000000
650000A9000065
1A0001AA0000B0
0A100556400290
04700A01900830
00B01900A10B00
00836400554700
0038A0001A9200
000B800009A000
ENDCHAR
STARTCHAR wcircumflex
ENCODING 373
SWIDTH 1266 0
DWIDTH 14 0
BBX 14 11 0 0
BITMAP
00000198000000
00000812800000
00000000000000
650000A9000065
1A0001AA0000B0
0A100556400290
04700A01900830
00B01900A10B00
00836400554700
0038A0001A9200
000B800009A000
ENDCHAR
STARTCHAR Ycircumflex
ENCODING 374
SWIDTH 763 0
DWIDTH 8 0
BBX 8 11 0 0
BITMAP
00069100
00631710
00000000
48000039
075001A1
00A20920
001A6500
0004A000
00028000
00028000
00028000
ENDCHAR
STARTCHAR ycircumflex
ENCODING 375
SWIDTH 911 0
DWIDTH 10 0
BBX 8 11 1 0
BITMAP
00197000
01813700
00000000
A000000A
A000000A
C000004B
992028CB
18DFD70A
0000002B
000026E4
FFFFDA40
ENDCHAR
STARTCHAR Ydieresis
ENCODING 376
SWIDTH 763 0
DWIDTH 8 0
BBX 8 10 0 0
BITMAP
00482A00
00000000
48000039
075001A1
00A20920
001A6500
0004A000
00028000
00028000
00028000
ENDCHAR
STARTCHAR Zacute
ENCODING 377
SWIDTH 728 0
DWIDTH 8 0
BBX 8 11 0 0
BITMAP
00004A00
00058100
00000000
1FFFFFF2
00000460
00003700
00018000
00081000
00810000
06200000
2FFFFFF4
ENDCHAR
STARTCHAR zacute
ENCODING 378
SWIDTH 728 0
DWIDTH 8 0
BBX 8 11 0 0
BITMAP
00004A00
00058100
00000000
1FFFFFF2
00000460
00003700
00018000
00081000
00810000
06200000
2FFFFFF4
ENDCHAR
STARTCHAR Zdotaccent
ENCODING 379
SWIDTH 728 0
DWIDTH 8 0
BBX 8 10 0 0
BITMAP
00057000
00000000
1FFFFFF2
00000460
00003700
00018000
00081000
00810000
06200000
2FFFFFF4
ENDCHAR
STARTCHAR zdotaccent
ENCODING 380
SWIDTH 728 0
DWIDTH 8 0
BBX 8 10 0 0
BITMAP
00057000
00000000
1FFFFFF2
00000460
00003700
00018000
00081000
00810000
06200000
2FFFFFF4
ENDCHAR
STARTCHAR Zcaron
ENCODING 381
SWIDTH 728 0
DWIDTH 8 0
BBX 8 11 0 0
BITMAP
00821800
00089100
00000000
1FFFFFF2
00000460
00003700
00018000
00081000
00810000
06200000
2FFFFFF4
ENDCHAR
STARTCHAR zcaron
ENCODING 382
SWIDTH 728 0
DWIDTH 8 0
BBX 8 11 0 0
BITMAP
00821800
00089100
00000000
1FFFFFF2
00000460
00003700
00018000
00081000
00810000
06200000
2FFFFFF4
ENDCHAR
STARTCHAR florin
ENCODING 402
SWIDTH 835 0
DWIDTH 9 0
BBX 9 8 0 0
BITMAP
000004DFD0
00000C3000
0000290000
001FFFF200
0000920000
0001B00000
001A500000
AFE9000000
ENDCHAR
STARTCHAR AEacute
ENCODING 508
SWIDTH 1172 0
DWIDTH 13 0
BBX 13 11 0 0
BITMAP
000000003A0000
00000004810000
00000000000000
00005FFFFFFF00
0001C480000000
00084280000000
003902FFFFFB00
00A10280000000
07FFFF80000000
2C000280000000
A30002FFFFFF10
ENDCHAR
STARTCHAR aeacute
ENCODING 509
SWIDTH 1551 0
DWIDTH 17 0
BBX 17 11 0 0
BITMAP
000000000760000000
000000009500000000
000000000000000000
09FFFEB503AEFD7000
0000013B8B41127A00
00000002C000000640
0027ACDFFFFFFFFF60
09B74311B000000000
38000000C300000000
3B30125ABD72100000
06DFEC9303ADFFFD00
ENDCHAR
STARTCHAR Oslashacute
ENCODING 510
SWIDTH 983 0
DWIDTH 11 0
BBX 11 12 0 -1
BITMAP
000001930000
00001A300000
00000000A000
004BEFEC5000
06C5203BC400
1C1000911B00
380007300A10
370056000A10
1B0280002B00
07BB1025C400
008CEFDA2000
019000000000
ENDCHAR
STARTCHAR oslashacute
ENCODING 511
SWIDTH 983 0
DWIDTH 11 0
BBX 11 12 0 -1
BITMAP
000001930000
00001A300000
00000000A000
004BEFEC5000
06C5203BC400
1C1000911B00
380007300A10
370056000A10
1B0280002B00
07BB1025C400
008CEFDA2000
019000000000
ENDCHAR
STARTCHAR dotlessj
ENCODING 567
SWIDTH 590 0
DWIDTH 7 0
BBX 6 8 0 0
BITMAP
000064
000064
000064
000064
000064
000074
0003D1
FFFC40
ENDCHAR
STARTCHAR circumflex
ENCODING 710
SWIDTH 527 0
DWIDTH 6 0
BBX 5 2 0 7
BITMAP
019700
181270
ENDCHAR
STARTCHAR caron
ENCODING 711
SWIDTH 527 0
DWIDTH 6 0
BBX 5 2 0 7
BITMAP
181270
019800
ENDCHAR
STARTCHAR breve
ENCODING 728
SWIDTH 527 0
DWIDTH 6 0
BBX 4 2 1 7
BITMAP
B239
4ED2
ENDCHAR
STARTCHAR dotaccent
ENCODING 729
SWIDTH 527 0
DWIDTH 6 0
BBX 2 1 2 7
BITMAP
85
ENDCHAR
STARTCHAR ring
ENCODING 730
SWIDTH 527 0
DWIDTH 6 0
BBX 4 2 1 7
BITMAP
4ED2
4ED2
ENDCHAR
STARTCHAR ogonek
ENCODING 731
SWIDTH 527 0
DWIDTH 6 0
BBX 4 2 1 -2
BITMAP
1600
3EF1
ENDCHAR
STARTCHAR tilde
ENCODING 732
SWIDTH 527 0
DWIDTH 6 0
BBX 4 2 1 7
BITMAP
9C28
94D6
ENDCHAR
STARTCHAR hungarumlaut
ENCODING 733
SWIDTH 527 0
DWIDTH 6 0
BBX 5 2 1 7
BITMAP
092910
657400
ENDCHAR
STARTCHAR commaaccent
ENCODING 806
SWIDTH 527 0
DWIDTH 6 0
BBX 2 2 2 -3
BITMAP
74
81
ENDCHAR
STARTCHAR mu
ENCODING 956
SWIDTH 705 0
DWIDTH 8 0
BBX 7 7 0 -2
BITMAP
05500190
08200470
09000840
0D316E10
29DE8820
55000000
82000000
ENDCHAR
STARTCHAR Wgrave
ENCODING 7808
SWIDTH 1266 0
DWIDTH 14 0
BBX 14 11 0 0
BITMAP
00000A40000000
00000185000000
00000000000000
650000A9000065
1A0001AA0000B0
0A100556400290
04700A01900830
00B01900A10B00
00836400554700
0038A0001A9200
000B800009A000
ENDCHAR
STARTCHAR wgrave
ENCODING 7809
SWIDTH 1266 0
DWIDTH 14 0
BBX 14 11 0 0
BITMAP
00000A40000000
00000185000000
00000000000000
650000A9000065
1A0001AA0000B0
0A100556400290
04700A01900830
00B01900A10B00
00836400554700
0038A0001A9200
000B800009A000
ENDCHAR
STARTCHAR Wacute
ENCODING 7810
SWIDTH 1266 0
DWIDTH 14 0
BBX 14 11 0 0
BITMAP
00000005900000
00000067000000
00000000000000
650000A9000065
1A0001AA0000B0
0A100556400290
04700A01900830
00B01900A10B00
00836400554700
0038A0001A9200
000B800009A000
ENDCHAR
STARTCHAR wacute
ENCODING 7811
SWIDTH 1266 0
DWIDTH 14 0
BBX 14 11 0 0
BITMAP
00000005900000
00000067000000
00000000000000
650000A9000065
1A0001AA0000B0
0A100556400290
04700A01900830
00B01900A10B00
00836400554700
0038A0001A9200
000B800009A000
ENDCHAR
STARTCHAR Wdieresis
ENCODING 7812
SWIDTH 1266 0
DWIDTH 14 0
BBX 14 10 0 0
BITMAP
00000845600000
00000000000000
650000A9000065
1A0001AA0000B0
0A100556400290
04700A01900830
00B01900A10B00
00836400554700
0038A0001A9200
000B800009A000
ENDCHAR
STARTCHAR wdieresis
ENCODING 7813
SWIDTH 1266 0
DWIDTH 14 0
BBX 14 10 0 0
BITMAP
00000845600000
00000000000000
650000A9000065
1A0001AA0000B0
0A100556400290
04700A01900830
00B01900A10B00
00836400554700
0038A0001A9200
000B800009A000
ENDCHAR
STARTCHAR Ygrave
ENCODING 7922
SWIDTH 763 0
DWIDTH 8 0
BBX 8 11 0 0
BITMAP
00760000
00068000
00000000
48000039
075001A1
00A20920
001A6500
0004A000
00028000
00028000
00028000
ENDCHAR
STARTCHAR ygrave
ENCODING 7923
SWIDTH 911 0
DWIDTH 10 0
BBX 8 11 1 0
BITMAP
00A30000
00185000
00000000
A000000A
A000000A
C000004B
992028CB
18DFD70A
0000002B
000026E4
FFFFDA40
ENDCHAR
STARTCHAR endash
ENCODING 8211
SWIDTH 419 0
DWIDTH 5 0
BBX 5 1 0 3
BITMAP
CFFF60
ENDCHAR
STARTCHAR emdash
ENCODING 8212
SWIDTH 1000 0
DWIDTH 11 0
BBX 11 1 0 3
BITMAP
FFFFFFFFFFF0
ENDCHAR
STARTCHAR quoteleft
ENCODING 8216
SWIDTH 163 0
DWIDTH 2 0
BBX 2 2 0 6
BITMAP
36
83
ENDCHAR
STARTCHAR quoteright
ENCODING 8217
SWIDTH 163 0
DWIDTH 2 0
BBX 2 2 0 6
BITMAP
65
81
ENDCHAR
STARTCHAR quotesinglbase
ENCODING 8218
SWIDTH 163 0
DWIDTH 2 0
BBX 2 2 0 -1
BITMAP
65
81
ENDCHAR
STARTCHAR quotedblleft
ENCODING 8220
SWIDTH 303 0
DWIDTH 3 0
BBX 3 2 0 6
BITMAP
3690
83A0
ENDCHAR
STARTCHAR quotedblright
ENCODING 8221
SWIDTH 303 0
DWIDTH 3 0
BBX 3 2 0 6
BITMAP
65B0
8180
ENDCHAR
STARTCHAR quotedblbase
ENCODING 8222
SWIDTH 303 0
DWIDTH 3 0
BBX 3 2 0 -1
BITMAP
65B0
8180
ENDCHAR
STARTCHAR dagger
ENCODING 8224
SWIDTH 500 0
DWIDTH 6 0
BBX 4 8 1 0
BITMAP
0910
0910
FFF8
0910
0910
0910
0910
0910
ENDCHAR
STARTCHAR daggerdbl
ENCODING 8225
SWIDTH 500 0
DWIDTH 6 0
BBX 4 8 1 0
BITMAP
0910
0910
FFF8
0910
0910
FFF8
0910
0910
ENDCHAR
STARTCHAR bullet
ENCODING 8226
SWIDTH 352 0
DWIDTH 4 0
BBX 2 2 1 3
BITMAP
DB
DB
ENDCHAR
STARTCHAR ellipsis
ENCODING 8230
SWIDTH 555 0
DWIDTH 6 0
BBX 6 1 0 0
BITMAP
776868
ENDCHAR
STARTCHAR perthousand
ENCODING 8240
SWIDTH 1401 0
DWIDTH 15 0
BBX 15 8 0 0
BITMAP
0AEC200830000000
5703904600000000
5703919000000000
0AEC2A1000000000
0000748ED408EC30
000472A12B3912A0
001A02A12A3912A0
0092008ED408ED30
ENDCHAR
STARTCHAR guilsinglleft
ENCODING 8249
SWIDTH 257 0
DWIDTH 3 0
BBX 3 5 0 1
BITMAP
0630
2A00
8300
2A00
0630
ENDCHAR
STARTCHAR guilsinglright
ENCODING 8250
SWIDTH 257 0
DWIDTH 3 0
BBX 3 5 0 1
BITMAP
5400
0B10
0560
0B10
5400
ENDCHAR
STARTCHAR fraction
ENCODING 8260
SWIDTH 200 0
DWIDTH 2 0
BBX 7 8 -2 0
BITMAP
00000920
00006500
00038000
001A0000
00920000
05500000
29000000
A1000000
ENDCHAR
STARTCHAR Euro
ENCODING 8364
SWIDTH 833 0
DWIDTH 9 0
BBX 9 8 0 0
BITMAP
0018DFD700
00B7202740
0470000000
9FFFFF7000
0910000000
9FFFFE0000
03A3102740
003AEFD700
ENDCHAR
STARTCHAR trademark
ENCODING 8482
SWIDTH 773 0
DWIDTH 9 0
BBX 8 3 0 5
BITMAP
AFE85076
07077276
07071A16
ENDCHAR
STARTCHAR partialdiff
ENCODING 8706
SWIDTH 790 0
DWIDTH 9 0
BBX 8 8 0 0
BITMAP
008FFD80
00000298
0000000B
02AEEC6A
1C51039D
56000029
2B3015C2
05CEEA20
ENDCHAR
STARTCHAR minus
ENCODING 8722
SWIDTH 634 0
DWIDTH 7 0
BBX 7 1 0 3
BITMAP
1FFFFF10
ENDCHAR
STARTCHAR uni2215
ENCODING 8725
SWIDTH 200 0
DWIDTH 2 0
BBX 7 8 -2 0
BITMAP
00000920
00006500
00038000
001A0000
00920000
05500000
29000000
A1000000
ENDCHAR
STARTCHAR approxequal
ENCODING 8776
SWIDTH 634 0
DWIDTH 7 0
BBX 7 4 0 2
BITMAP
0BE71420
2428EB00
0BE71420
2428EB00
ENDCHAR
STARTCHAR notequal
ENCODING 8800
SWIDTH 634 0
DWIDTH 7 0
BBX 7 7 0 0
BITMAP
00019000
00055000
1FFFFF10
00090000
1FFFFF10
00730000
00A00000
ENDCHAR
STARTCHAR lessequal
ENCODING 8804
SWIDTH 634 0
DWIDTH 7 0
BBX 7 6 0 1
BITMAP
00016C10
04AC8300
2E600000
04AC8300
00016C10
1FFFFF10
ENDCHAR
STARTCHAR greaterequal
ENCODING 8805
SWIDTH 634 0
DWIDTH 7 0
BBX 7 6 0 1
BITMAP
1C610000
038C9400
00006E20
038CA400
1C610000
1FFFFF10
ENDCHAR
STARTCHAR fi
ENCODING 64257
SWIDTH 1104 0
DWIDTH 12 0
BBX 10 8 1 0
BITMAP
07DFFFF50A
7A3100000A
B10000000A
A00000000A
CFFFFFF30A
A00000000A
A00000000A
A00000000A
ENDCHAR
STARTCHAR fl
ENCODING 64258
SWIDTH 1527 0
DWIDTH 17 0
BBX 16 8 1 0
BITMAP
07DFFFF50A000000
7A3100000A000000
B10000000A000000
A00000000A000000
CFFFFFF30A000000
A00000000A000000
A000000009710000
A000000002BEFFFB
ENDCHAR
STARTCHAR .notdef
ENCODING -1
SWIDTH 1000 0
DWIDTH 11 0
BBX 1 1 0 0
BITMAP
00
ENDCHAR
ENDFONT
